<?xml version="1.0" standalone="no"?>
<!DOCTYPE svg PUBLIC "-//W3C//DTD SVG 1.1//EN" "http://www.w3.org/Graphics/SVG/1.1/DTD/svg11.dtd" >
<svg xmlns="http://www.w3.org/2000/svg" xmlns:xlink="http://www.w3.org/1999/xlink" version="1.1">
<metadata>
Created by FontForge 20170731 at Thu Sep 29 15:22:35 2016
 By Aleksey,,,
Copyright (c) 2016 by Radomir Tinkov. All rights reserved.
</metadata>
<defs>
<font id="RidleyGrotesk-Bold" horiz-adv-x="0" >
  <font-face 
    font-family="Ridley Grotesk Bold"
    font-weight="700"
    font-stretch="normal"
    units-per-em="1000"
    panose-1="0 0 8 0 0 0 0 0 0 0"
    ascent="800"
    descent="-200"
    x-height="490"
    cap-height="700"
    bbox="-800 -305 1191 948"
    underline-thickness="50"
    underline-position="-150"
    unicode-range="U+0020-2265"
  />
<missing-glyph horiz-adv-x="500" 
d="M410 -200h-317v1000h317v-1000zM168 733v-33h65v-37h-66v-33h166v33h-66v37h66v33h-165zM167 604v-104h166v34h-66v70h-100zM233 534h-33v36h33v-36zM167 473v-33h66v-37h-66v-33h100v70h66v33h-166zM300 413v-66h-133v-34h166v100h-33zM233 291v-56h34v23h33v-47h-100
v80h-33v-113h166v113h-100zM167 118v-113h166v113h-166zM300 38h-100v47h100v-47zM167 -18v-33h70l-70 -47v-33h166v33h-102l70 47h32v33h-166z" />
    <glyph glyph-name="f_f" unicode="ff" horiz-adv-x="723" 
d="M582 585.5q-19 -17.5 -19 -52.5v-43h150v-129h-150v-361h-147v361h-166v-361h-147v361h-85v129h85v53q0 85 51.5 132.5t131.5 47.5q37 0 71 -8v-121q-17 4 -36 4q-33 0 -52 -18t-19 -52v-38h166v63q0 85 50.5 132.5t130.5 47.5q62 0 116 -24v-127q-39 21 -79 21
q-33 0 -52 -17.5z" />
    <glyph glyph-name="f_f_i" unicode="ffi" horiz-adv-x="938" 
d="M876 0h-147v361h-166v-361h-147v361h-166v-361h-147v361h-85v129h85v53q0 85 51.5 132.5t131.5 47.5q37 0 71 -8v-121q-17 4 -36 4q-33 0 -52 -18t-19 -52v-38h166v38q0 101 61 153t160 52q67 0 131 -24v-127q-52 21 -102 21q-49 0 -76 -21.5t-27 -60.5v-31h313v-490z
" />
    <glyph glyph-name=".notdef" horiz-adv-x="500" 
d="M410 -200h-317v1000h317v-1000zM168 733v-33h65v-37h-66v-33h166v33h-66v37h66v33h-165zM167 604v-104h166v34h-66v70h-100zM233 534h-33v36h33v-36zM167 473v-33h66v-37h-66v-33h100v70h66v33h-166zM300 413v-66h-133v-34h166v100h-33zM233 291v-56h34v23h33v-47h-100
v80h-33v-113h166v113h-100zM167 118v-113h166v113h-166zM300 38h-100v47h100v-47zM167 -18v-33h70l-70 -47v-33h166v33h-102l70 47h32v33h-166z" />
    <glyph glyph-name=".null" 
 />
    <glyph glyph-name="nonmarkingreturn" horiz-adv-x="333" 
 />
    <glyph glyph-name="space" unicode=" " horiz-adv-x="290" 
 />
    <glyph glyph-name="exclam" unicode="!" horiz-adv-x="325" 
d="M243 700v-150l-25 -305h-110l-25 305v150h160zM93 14.5q-28 27.5 -28 67.5t28 67.5t70 27.5q41 0 69 -27.5t28 -67.5t-28 -67.5t-69 -27.5q-42 0 -70 27.5z" />
    <glyph glyph-name="quotedbl" unicode="&#x22;" horiz-adv-x="470" 
d="M195 700v-135l-25 -180h-100l-25 180v135h150zM425 700v-135l-25 -180h-100l-25 180v135h150z" />
    <glyph glyph-name="numbersign" unicode="#" horiz-adv-x="813" 
d="M609 415l-24 -130h134l-22 -121h-133l-29 -164h-125l29 164h-137l-29 -164h-125l29 164h-127l22 121h126l24 130h-127l21 121h127l29 164h125l-29 -164h137l29 164h125l-29 -164h133l-21 -121h-133zM484 415h-137l-24 -130h137z" />
    <glyph glyph-name="dollar" unicode="$" horiz-adv-x="725" 
d="M612 56.5q-75 -58.5 -205 -67.5v-99h-90v98q-158 10 -274 96l72 133q86 -70 202 -84v151q-84 13 -138 31t-88.5 57t-34.5 108q0 99 70.5 160.5t190.5 70.5v99h90v-99q95 -9 160 -52t94 -106l-130 -68q-27 68 -124 84v-155q92 -12 148.5 -28t94 -55.5t37.5 -112.5
q0 -103 -75 -161.5zM232 451q24 -14 85 -24v145q-56 -5 -82.5 -26t-26.5 -53q0 -28 24 -42zM497 156.5q31 20.5 31 55.5q0 17 -9.5 26.5t-34.5 17t-77 15.5v-140q59 5 90 25.5z" />
    <glyph glyph-name="percent" unicode="%" horiz-adv-x="895" 
d="M149 2l524 748l73 -51l-523 -749zM137 372.5q-43 24.5 -67.5 66.5t-24.5 92t24.5 91.5t67.5 66t96 24.5q52 0 94.5 -24.5t67 -66t24.5 -91.5t-24 -92t-67 -66.5t-95 -24.5q-53 0 -96 24.5zM287.5 477.5q21.5 21.5 21.5 53.5t-21.5 53t-54.5 21q-34 0 -55.5 -21t-21.5 -53
t21.5 -53.5t55.5 -21.5q33 0 54.5 21.5zM567.5 11.5q-42.5 24.5 -67 66.5t-24.5 92t24.5 91.5t67 66t95.5 24.5t95.5 -24.5t67 -66t24.5 -91.5t-24.5 -92t-67 -66.5t-95.5 -24.5t-95.5 24.5zM718 116.5q22 21.5 22 53.5t-21.5 53t-55.5 21q-33 0 -54.5 -21t-21.5 -53
t21.5 -53.5t54.5 -21.5t55 21.5z" />
    <glyph glyph-name="ampersand" unicode="&#x26;" horiz-adv-x="810" 
d="M687 -21l-103 91q-100 -83 -243 -83q-81 0 -143.5 27t-97.5 76.5t-35 116.5q0 70 40 122.5t114 76.5q-42 56 -42 117q0 51 25.5 94.5t75.5 69.5t118 26q80 0 134.5 -36t85.5 -95l-119 -63q-18 33 -39.5 49.5t-55.5 16.5q-35 0 -54 -17.5t-19 -45.5q0 -23 19.5 -48
t67.5 -68l153 -136q34 61 57 130l120 -69q-29 -88 -71 -155l103 -92zM479 163l-159 141q-45 -6 -70.5 -30t-25.5 -61q0 -43 34.5 -68t90.5 -25q73 0 130 43z" />
    <glyph glyph-name="quotesingle" unicode="'" horiz-adv-x="240" 
d="M195 700v-135l-25 -180h-100l-25 180v135h150z" />
    <glyph glyph-name="parenleft" unicode="(" horiz-adv-x="405" 
d="M132 34q-52 125 -52 266t52 266t149 220l114 -69q-74 -83 -114.5 -189.5t-40.5 -227.5q0 -120 40.5 -227t114.5 -190l-114 -69q-97 95 -149 220z" />
    <glyph glyph-name="parenright" unicode=")" horiz-adv-x="405" 
d="M10 -117q74 83 114.5 190t40.5 227q0 121 -40.5 227.5t-114.5 189.5l114 69q97 -95 149 -220t52 -266t-52 -266t-149 -220z" />
    <glyph glyph-name="asterisk" unicode="*" horiz-adv-x="434" 
d="M303 492l67 -81l-71 -64l-82 86l-81 -86l-72 64l67 81l-96 30l24 93l106 -24l2 109h100l3 -109l106 24l23 -93z" />
    <glyph glyph-name="plus" unicode="+" horiz-adv-x="680" 
d="M615 280h-203v-205h-143v205h-204v141h204v204h143v-204h203v-141z" />
    <glyph glyph-name="comma" unicode="," horiz-adv-x="310" 
d="M61 -141q46 30 68 61t23 70q-43 0 -71 27t-28 67q0 39 27.5 66t68.5 27q51 0 81 -38.5t30 -95.5q0 -68 -44.5 -132.5t-121.5 -98.5z" />
    <glyph glyph-name="hyphen" unicode="-" horiz-adv-x="600" 
d="M510 315v-140h-420v140h420z" />
    <glyph glyph-name="period" unicode="." horiz-adv-x="295" 
d="M78 14.5q-28 27.5 -28 67.5t28 67.5t70 27.5q41 0 69 -27.5t28 -67.5t-28 -67.5t-69 -27.5q-42 0 -70 27.5z" />
    <glyph glyph-name="slash" unicode="/" horiz-adv-x="488" 
d="M45 -50l302 835l96 -36l-302 -834z" />
    <glyph glyph-name="zero" unicode="0" horiz-adv-x="820" 
d="M220.5 35.5q-83.5 48.5 -129.5 132t-46 182.5q0 100 46 183t129.5 131.5t189.5 48.5t189.5 -48.5t129.5 -131.5t46 -183q0 -99 -46 -182.5t-129.5 -132t-189.5 -48.5t-189.5 48.5zM517 165q46 28 71 76.5t25 108.5q0 61 -25 109.5t-71 76t-107 27.5t-107 -27.5t-71 -76
t-25 -109.5q0 -60 25 -108.5t71 -76.5t107 -28t107 28z" />
    <glyph glyph-name="one" unicode="1" horiz-adv-x="494" 
d="M412 700v-700h-160v525l-179 -66l-48 147l257 94h130z" />
    <glyph glyph-name="two" unicode="2" horiz-adv-x="712" 
d="M299 198.5q-38 -24.5 -58 -53.5h419v-145h-605q0 107 23.5 172t80 110t162.5 87q82 33 116.5 49t48.5 31.5t14 38.5q0 35 -31.5 57.5t-97.5 22.5q-78 0 -120 -28.5t-66 -79.5l-132 73q87 180 320 180q87 0 152.5 -28.5t101 -80.5t35.5 -120t-34 -111t-82.5 -67
t-143.5 -59q-65 -24 -103 -48.5z" />
    <glyph glyph-name="three" unicode="3" horiz-adv-x="700" 
d="M625.5 301q31.5 -40 31.5 -99t-34.5 -108t-104 -78t-169.5 -29q-101 0 -182.5 27.5t-136.5 77.5l82 128q78 -88 229 -88q72 0 113 23t41 61q0 31 -23.5 49t-59.5 18h-142v141h102q93 0 93 65q0 35 -33.5 57t-97.5 22q-73 0 -112 -23t-59 -73l-129 71q78 170 305 170
q91 0 156 -29t98.5 -77.5t33.5 -105.5q0 -49 -23 -86t-65 -57q55 -17 86.5 -57z" />
    <glyph glyph-name="four" unicode="4" horiz-adv-x="728" 
d="M445 128h-430v128l440 444h143v-434h110v-138h-110v-128h-153v128zM445 266v238l-237 -238h237z" />
    <glyph glyph-name="five" unicode="5" horiz-adv-x="709" 
d="M45 87l80 125q48 -39 99.5 -59.5t118.5 -20.5q75 0 117 25.5t42 69.5q0 43 -39.5 65.5t-117.5 22.5q-90 0 -144 -23l-108 65v343h540v-145h-385v-120q72 14 136 14q81 0 144.5 -26.5t99.5 -76.5t36 -118q0 -73 -36.5 -127t-108.5 -84t-174 -30q-181 0 -300 100z" />
    <glyph glyph-name="six" unicode="6" horiz-adv-x="738" 
d="M562.5 415.5q65.5 -25.5 103 -75t37.5 -119.5q0 -68 -36 -121t-103 -83t-156 -30q-109 0 -190 44t-124.5 125.5t-43.5 191.5q0 117 48.5 199.5t129.5 124t179 41.5q79 0 149.5 -27t124.5 -78l-76 -115q-33 34 -80.5 54.5t-107.5 20.5q-87 0 -139.5 -44.5t-64.5 -127.5
q98 45 202 45q82 0 147.5 -25.5zM504.5 151q36.5 25 36.5 69q0 45 -38.5 67.5t-105.5 22.5q-91 0 -176 -48q19 -68 69 -102t119 -34q59 0 95.5 25z" />
    <glyph glyph-name="seven" unicode="7" horiz-adv-x="680" 
d="M635 700v-123l-306 -577h-175l294 552h-413v148h600z" />
    <glyph glyph-name="eight" unicode="8" horiz-adv-x="740" 
d="M660 308.5q35 -44.5 35 -105.5q0 -66 -39.5 -114.5t-113 -75t-172.5 -26.5q-98 0 -171.5 26.5t-113.5 75t-40 114.5q0 61 35.5 105.5t100.5 70.5q-48 24 -73 60.5t-25 84.5q0 58 35 100.5t100 65.5t152 23q88 0 153 -23t100 -65.5t35 -100.5q0 -48 -25 -84.5t-73 -60.5
q65 -26 100 -70.5zM268 558.5q-35 -19.5 -35 -52.5q0 -34 34.5 -53t102.5 -19t103 19t35 53q0 33 -35.5 52.5t-102.5 19.5t-102 -19.5zM491.5 154q43.5 24 43.5 65q0 42 -43 65.5t-122 23.5t-122 -23.5t-43 -65.5q0 -41 43.5 -65t121.5 -24t121.5 24z" />
    <glyph glyph-name="nine" unicode="9" horiz-adv-x="738" 
d="M520 669q81 -44 124.5 -125.5t43.5 -191.5q0 -117 -48.5 -199.5t-129.5 -124t-179 -41.5q-79 0 -149.5 27t-124.5 78l76 115q33 -34 80.5 -54.5t107.5 -20.5q87 0 139.5 44.5t64.5 127.5q-98 -45 -202 -45q-82 0 -147.5 25.5t-103 75t-37.5 119.5q0 68 36 121t103 83
t156 30q109 0 190 -44zM235.5 412.5q38.5 -22.5 105.5 -22.5q91 0 176 48q-19 68 -69 102t-119 34q-59 0 -95.5 -25t-36.5 -69q0 -45 38.5 -67.5z" />
    <glyph glyph-name="colon" unicode=":" horiz-adv-x="295" 
d="M78 14.5q-28 27.5 -28 67.5t28 67.5t70 27.5q41 0 69 -27.5t28 -67.5t-28 -67.5t-69 -27.5q-42 0 -70 27.5zM78 340.5q-28 27.5 -28 67.5t28 67.5t70 27.5q41 0 69 -27.5t28 -67.5t-28 -67.5t-69 -27.5q-42 0 -70 27.5z" />
    <glyph glyph-name="semicolon" unicode=";" horiz-adv-x="310" 
d="M61 -141q46 30 68 61t23 70q-43 0 -71 27t-28 67q0 39 27.5 66t68.5 27q51 0 81 -38.5t30 -95.5q0 -68 -44.5 -132.5t-121.5 -98.5zM83 340.5q-28 27.5 -28 67.5t28 67.5t70 27.5q41 0 69 -27.5t28 -67.5t-28 -67.5t-69 -27.5q-42 0 -70 27.5z" />
    <glyph glyph-name="less" unicode="&#x3c;" horiz-adv-x="690" 
d="M605 464l-392 -113l392 -113v-146l-550 179v160l550 179v-146z" />
    <glyph glyph-name="equal" unicode="=" horiz-adv-x="690" 
d="M70 538h550v-141h-550v141zM70 303h550v-141h-550v141z" />
    <glyph glyph-name="greater" unicode="&#x3e;" horiz-adv-x="690" 
d="M635 431v-160l-550 -179v146l392 113l-392 113v146z" />
    <glyph glyph-name="question" unicode="?" horiz-adv-x="640" 
d="M192 312l163 109q39 28 56 46.5t17 40.5q0 27 -26.5 43.5t-76.5 16.5q-58 0 -100 -23t-60 -61l-135 74q40 70 116 112.5t175 42.5q84 0 145 -25.5t92.5 -69.5t31.5 -100q0 -64 -34 -107.5t-102 -90.5l-139 -96zM246 14.5q-28 27.5 -28 67.5t28 67.5t70 27.5
q41 0 69 -27.5t28 -67.5t-28 -67.5t-69 -27.5q-42 0 -70 27.5z" />
    <glyph glyph-name="at" unicode="@" horiz-adv-x="840" 
d="M613 565q85 -48 132.5 -132.5t47.5 -189.5q0 -103 -45.5 -152t-119.5 -49q-86 0 -120 57q-59 -44 -132 -44q-60 0 -99 30t-39 82q0 63 53 90t147 32l50 3v3q0 54 -66 54q-63 0 -78 -49l-97 32q20 61 70 87.5t110 26.5q76 0 122 -40t46 -108v-127q0 -34 13.5 -50t43.5 -16
q34 0 56.5 31.5t22.5 99.5q0 96 -40 168.5t-110 111.5t-159 39q-90 0 -161 -39.5t-111 -109.5t-40 -158q0 -86 39.5 -155t113 -108.5t172.5 -39.5q39 0 81 6t76 21l16 -55q-73 -30 -176 -30q-115 0 -202 48t-134.5 130.5t-47.5 183.5t47.5 184.5t133 131.5t192.5 48t192 -48
zM488 171v6v41l-45 -3q-47 -4 -69.5 -12t-22.5 -31q0 -17 13 -25.5t35 -8.5q52 0 89 33z" />
    <glyph glyph-name="A" unicode="A" horiz-adv-x="795" 
d="M783 9v-9h-172l-50 122h-326l-50 -122h-172v9l301 691h167zM505 260l-107 263l-107 -263h214z" />
    <glyph glyph-name="B" unicode="B" horiz-adv-x="758" 
d="M83 700h396q59 0 104 -25t70 -68.5t25 -96.5q0 -51 -23 -89t-63 -60q57 -17 91.5 -61.5t34.5 -110.5q0 -56 -26.5 -99t-72 -66.5t-100.5 -23.5h-436v700zM435 415q39 0 61 20t22 56t-22 56t-61 20h-192v-152h192zM473 133q40 0 62.5 21t22.5 56q0 36 -22.5 57t-62.5 21
h-230v-155h230z" />
    <glyph glyph-name="C" unicode="C" horiz-adv-x="762" 
d="M221.5 35.5q-83.5 48.5 -128.5 131.5t-45 183q0 101 44.5 184t127 131t191.5 48q110 0 193 -49t121 -131l-134 -77q-21 49 -68 78t-110 29t-109 -28t-70 -76.5t-24 -108.5t24.5 -108.5t71.5 -76.5t110 -28q64 0 111.5 29t68.5 78l134 -76q-38 -82 -122 -131.5t-194 -49.5
q-109 0 -192.5 48.5z" />
    <glyph glyph-name="D" unicode="D" horiz-adv-x="790" 
d="M563.5 654q83.5 -46 131.5 -126t48 -178t-48 -178t-131.5 -126t-185.5 -46h-295v700h295q102 0 185.5 -46zM484 173.5q47 25.5 73 71.5t26 105t-26 105t-73 71.5t-106 25.5h-135v-404h135q59 0 106 25.5z" />
    <glyph glyph-name="E" unicode="E" horiz-adv-x="700" 
d="M655 148v-148h-570v700h560v-148h-400v-127h255v-148h-255v-129h410z" />
    <glyph glyph-name="F" unicode="F" horiz-adv-x="685" 
d="M243 552v-157h270v-148h-270v-247h-160v700h570v-148h-410z" />
    <glyph glyph-name="G" unicode="G" horiz-adv-x="805" 
d="M748 395v-280q-57 -62 -136 -95t-175 -33q-120 0 -208 48.5t-134.5 131t-46.5 181.5q0 100 46 183.5t131 132.5t196 49q110 0 192.5 -48.5t122.5 -131.5l-137 -71q-22 47 -66 75t-110 28q-65 0 -113.5 -27.5t-74 -76.5t-25.5 -113q0 -97 59.5 -157t171.5 -60q92 0 160 49
v84h-168v131h315z" />
    <glyph glyph-name="H" unicode="H" horiz-adv-x="805" 
d="M723 700v-700h-160v286h-320v-286h-160v700h160v-266h320v266h160z" />
    <glyph glyph-name="I" unicode="I" horiz-adv-x="325" 
d="M243 700v-700h-160v700h160z" />
    <glyph glyph-name="J" unicode="J" horiz-adv-x="695" 
d="M141 36.5q-73 49.5 -106 137.5l138 76q30 -113 152 -113q70 0 106.5 35t36.5 101v427h160v-432q0 -135 -79.5 -208t-219.5 -73q-115 0 -188 49.5z" />
    <glyph glyph-name="K" unicode="K" horiz-adv-x="770" 
d="M748 8v-8h-176l-199 287l-130 -142v-145h-160v700h160v-340l306 340h191v-8l-262 -289z" />
    <glyph glyph-name="L" unicode="L" horiz-adv-x="668" 
d="M633 148v-148h-550v700h160v-552h390z" />
    <glyph glyph-name="M" unicode="M" horiz-adv-x="905" 
d="M823 700v-700h-160v437l-203 -271h-14l-203 271v-437h-160v700h135l235 -313l235 313h135z" />
    <glyph glyph-name="N" unicode="N" horiz-adv-x="815" 
d="M733 700v-700h-140l-350 435v-435h-160v700h140l350 -435v435h160z" />
    <glyph glyph-name="O" unicode="O" horiz-adv-x="845" 
d="M226.5 35.5q-85.5 48.5 -132 131.5t-46.5 183t46.5 183t132 131.5t196.5 48.5t196.5 -48.5t132 -131.5t46.5 -183t-46.5 -183t-132 -131.5t-196.5 -48.5t-196.5 48.5zM535.5 165q48.5 28 74.5 76.5t26 108.5q0 61 -26 109.5t-74.5 76t-112.5 27.5q-65 0 -113 -27.5
t-74 -76t-26 -109.5q0 -60 26 -108.5t74.5 -76.5t112.5 -28t112.5 28z" />
    <glyph glyph-name="P" unicode="P" horiz-adv-x="753" 
d="M593 669q56 -31 88 -85.5t32 -123.5t-32 -123.5t-88 -85.5t-125 -31h-225v-220h-160v700h385q69 0 125 -31zM523.5 388.5q29.5 27.5 29.5 70.5t-29.5 70.5t-74.5 27.5h-206v-196h206q45 0 74.5 27.5z" />
    <glyph glyph-name="Q" unicode="Q" horiz-adv-x="845" 
d="M758 180q-40 -78 -112 -128l152 -118l-129 -92l-192 148q-25 -3 -54 -3q-111 0 -196.5 48.5t-132 131.5t-46.5 183t46.5 183t132 131.5t196.5 48.5t196.5 -48.5t132 -131.5t46.5 -183q0 -92 -40 -170zM236 241.5q26 -48.5 74.5 -76.5t112.5 -28t112.5 28t74.5 76.5
t26 108.5q0 61 -26 109.5t-74.5 76t-112.5 27.5q-65 0 -113 -27.5t-74 -76t-26 -109.5q0 -60 26 -108.5z" />
    <glyph glyph-name="R" unicode="R" horiz-adv-x="765" 
d="M743 8v-8h-169l-158 237h-173v-237h-160v700h375q69 0 125 -29.5t88 -82t32 -120.5q0 -72 -35.5 -126t-96.5 -82zM243 374h196q46 0 75 25t29 67q0 41 -29 66t-75 25h-196v-183z" />
    <glyph glyph-name="S" unicode="S" horiz-adv-x="720" 
d="M38 84l72 133q51 -45 115 -66t146 -21q72 0 112 21t40 60q0 19 -14 30t-50.5 19t-116.5 19q-98 15 -155.5 31t-96.5 56t-39 114q0 71 38 123.5t106 81t157 28.5q115 0 192.5 -44t111.5 -116l-130 -68q-17 42 -62 64.5t-115 22.5q-72 0 -105 -21.5t-33 -57.5q0 -21 14 -33
t49 -20.5t105 -17.5q101 -14 161 -30.5t101 -57.5t41 -116q0 -111 -88.5 -171t-232.5 -60q-191 0 -323 97z" />
    <glyph glyph-name="T" unicode="T" horiz-adv-x="685" 
d="M663 552h-240v-552h-160v552h-240v148h640v-148z" />
    <glyph glyph-name="U" unicode="U" horiz-adv-x="775" 
d="M221.5 19.5q-72.5 32.5 -113 98.5t-40.5 162v420h160v-420q0 -71 43 -107t118 -36q74 0 116.5 36t42.5 107v420h160v-420q0 -96 -41 -161.5t-113 -98.5t-166 -33t-166.5 32.5z" />
    <glyph glyph-name="V" unicode="V" horiz-adv-x="767" 
d="M13 691v9h172l199 -510l199 510h172v-9l-287 -691h-169z" />
    <glyph glyph-name="W" unicode="W" horiz-adv-x="1060" 
d="M20 691v9h167l134 -461l151 441h117l150 -441l134 461h167v-9l-224 -691h-139l-147 430l-146 -430h-140z" />
    <glyph glyph-name="X" unicode="X" horiz-adv-x="754" 
d="M727 9v-9h-177l-172 238l-173 -238h-177v9l258 355l-237 327v9h177l152 -209l151 209h177v-9l-237 -327z" />
    <glyph glyph-name="Y" unicode="Y" horiz-adv-x="735" 
d="M718 691l-270 -412v-279h-160v279l-270 412v9h175l175 -279l175 279h175v-9z" />
    <glyph glyph-name="Z" unicode="Z" horiz-adv-x="660" 
d="M618 148v-148h-575v119l349 433h-339v148h555v-123l-346 -429h356z" />
    <glyph glyph-name="bracketleft" unicode="[" horiz-adv-x="405" 
d="M250 640v-680h140v-140h-290v960h290v-140h-140z" />
    <glyph glyph-name="backslash" unicode="\" horiz-adv-x="488" 
d="M45 749l96 36l302 -835l-96 -35z" />
    <glyph glyph-name="bracketright" unicode="]" horiz-adv-x="405" 
d="M305 -180h-290v140h140v680h-140v140h290v-960z" />
    <glyph glyph-name="asciicircum" unicode="^" horiz-adv-x="630" 
d="M434 325l-119 252l-119 -252h-156l195 375h160l195 -375h-156z" />
    <glyph glyph-name="underscore" unicode="_" horiz-adv-x="570" 
d="M545 -50v-130h-520v130h520z" />
    <glyph glyph-name="a" unicode="a" horiz-adv-x="643" 
d="M580 490v-490h-147v61q-29 -35 -69.5 -54.5t-91.5 -19.5q-67 0 -120.5 33t-83.5 92t-30 133q0 75 30 133.5t83.5 91.5t120.5 33q101 0 161 -74v61h147zM433 312q-43 63 -117 63q-59 0 -93 -35.5t-34 -94.5q0 -58 34 -94t93 -36q73 0 117 63v134z" />
    <glyph glyph-name="b" unicode="b" horiz-adv-x="643" 
d="M491.5 470q53.5 -33 83.5 -91.5t30 -133.5q0 -74 -30 -133t-83.5 -92t-120.5 -33q-51 0 -91.5 19.5t-69.5 54.5v-61h-147v700h147v-271q60 74 161 74q67 0 120.5 -33zM420 151q34 36 34 94q0 59 -34 94.5t-93 35.5q-74 0 -117 -63v-134q44 -63 117 -63q59 0 93 36z" />
    <glyph glyph-name="c" unicode="c" horiz-adv-x="565" 
d="M165 21.5q-62 34.5 -94.5 93t-32.5 130.5t32 130.5t93 93t144 34.5q81 0 141.5 -35.5t87.5 -97.5l-118 -62q-14 30 -41.5 47t-65.5 17q-60 0 -92 -35t-32 -92t32.5 -92t92.5 -35q39 0 66.5 17t41.5 48l118 -63q-27 -62 -87 -97.5t-140 -35.5q-84 0 -146 34.5z" />
    <glyph glyph-name="d" unicode="d" horiz-adv-x="643" 
d="M580 700v-700h-147v61q-29 -35 -69.5 -54.5t-91.5 -19.5q-67 0 -120.5 33t-83.5 92t-30 133q0 75 30 133.5t83.5 91.5t120.5 33q101 0 161 -74v271h147zM433 312q-43 63 -117 63q-59 0 -93 -35.5t-34 -94.5q0 -58 34 -94t93 -36q73 0 117 63v134z" />
    <glyph glyph-name="e" unicode="e" horiz-adv-x="593" 
d="M251 128.5q38 -19.5 90 -19.5q41 0 75 11t68 34l49 -106q-85 -61 -202 -61q-89 0 -155 32.5t-101 91.5t-35 136q0 72 32 130.5t91.5 92t139.5 33.5q117 0 186 -71.5t69 -197.5q0 -24 -3 -50h-358q16 -36 54 -55.5zM412 288q-14 98 -108 98q-46 0 -75 -25.5t-39 -72.5h222
z" />
    <glyph glyph-name="f" unicode="f" horiz-adv-x="415" 
d="M269 575.5q-19 -17.5 -19 -52.5v-33h155v-129h-155v-361h-147v361h-85v129h85v53q0 86 51.5 133t134.5 47q62 0 116 -24v-127q-43 21 -84 21q-33 0 -52 -17.5z" />
    <glyph glyph-name="g" unicode="g" horiz-adv-x="643" 
d="M580 490v-453q0 -116 -73 -183t-210 -67q-120 0 -216 53l42 121q74 -48 162 -48q72 0 110 32t38 92v32q-29 -35 -69.5 -54.5t-91.5 -19.5q-67 0 -120.5 33t-83.5 90.5t-30 130.5t30 131t83.5 90.5t120.5 32.5q101 0 161 -74v61h147zM433 312q-43 63 -117 63
q-58 0 -92.5 -35t-34.5 -91t34.5 -91t92.5 -35q73 0 117 63v126z" />
    <glyph glyph-name="h" unicode="h" horiz-adv-x="605" 
d="M504 451q49 -52 49 -141v-310h-147v297q0 34 -22 54.5t-59 20.5q-64 0 -115 -63v-309h-147v700h147v-270q31 37 69.5 55t89.5 18q86 0 135 -52z" />
    <glyph glyph-name="i" unicode="i" horiz-adv-x="272" 
d="M72.5 581q-25.5 25 -25.5 62q0 36 26 61t63 25q38 0 64 -25t26 -61q0 -37 -26 -62t-64 -25t-63.5 25zM210 0h-147v490h147v-490z" />
    <glyph glyph-name="j" unicode="j" horiz-adv-x="284" 
d="M84 581q-26 25 -26 62q0 36 26 61t64 25t63.5 -25t25.5 -61q0 -37 -25.5 -62t-63.5 -25t-64 25zM-28 -96q54 12 78 39t24 73v474h147v-502q0 -85 -42.5 -133.5t-135.5 -70.5z" />
    <glyph glyph-name="k" unicode="k" horiz-adv-x="590" 
d="M570 7v-7h-157l-119 180l-84 -94v-86h-147v700h147v-427l183 217h174v-6l-177 -197z" />
    <glyph glyph-name="l" unicode="l" horiz-adv-x="272" 
d="M63 720h147v-720h-147v720z" />
    <glyph glyph-name="m" unicode="m" horiz-adv-x="895" 
d="M750.5 479q43.5 -24 68 -68t24.5 -101v-310h-147v299q0 31 -19 52t-55 21q-56 0 -94 -47v-325h-147v300q0 29 -19.5 50.5t-55.5 21.5q-56 0 -96 -58v-314h-147v490h147v-56q59 69 144 69q45 0 80.5 -17t58.5 -48q66 65 157 65q57 0 100.5 -24z" />
    <glyph glyph-name="n" unicode="n" horiz-adv-x="605" 
d="M504 451q49 -52 49 -141v-310h-147v297q0 34 -22 54.5t-59 20.5q-64 0 -115 -63v-309h-147v490h147v-60q31 37 69.5 55t89.5 18q86 0 135 -52z" />
    <glyph glyph-name="o" unicode="o" horiz-adv-x="630" 
d="M168 21.5q-63 34.5 -96.5 93.5t-33.5 130q0 72 33.5 130.5t96 93t147.5 34.5t148 -34.5t96.5 -93t33.5 -130.5q0 -71 -33.5 -130t-97 -93.5t-147.5 -34.5t-147 34.5zM407 152q35 36 35 93q0 58 -34.5 93.5t-92.5 35.5q-57 0 -91.5 -35.5t-34.5 -93.5t34.5 -93.5
t91.5 -35.5t92 36z" />
    <glyph glyph-name="p" unicode="p" horiz-adv-x="643" 
d="M491.5 470q53.5 -33 83.5 -91.5t30 -133.5q0 -74 -30 -133t-83.5 -92t-120.5 -33q-51 0 -91.5 19.5t-69.5 54.5v-261h-147v690h147v-61q60 74 161 74q67 0 120.5 -33zM420 151q34 36 34 94q0 59 -34 94.5t-93 35.5q-74 0 -117 -63v-134q44 -63 117 -63q59 0 93 36z" />
    <glyph glyph-name="q" unicode="q" horiz-adv-x="643" 
d="M580 490v-690h-147v261q-29 -35 -69.5 -54.5t-91.5 -19.5q-67 0 -120.5 33t-83.5 92t-30 133q0 75 30 133.5t83.5 91.5t120.5 33q101 0 161 -74v61h147zM433 312q-43 63 -117 63q-59 0 -93 -35.5t-34 -94.5q0 -58 34 -94t93 -36q73 0 117 63v134z" />
    <glyph glyph-name="r" unicode="r" horiz-adv-x="412" 
d="M286.5 478.5q46.5 24.5 105.5 23.5v-152l-16 1q-54 0 -100 -25.5t-66 -66.5v-259h-147v490h147v-88q30 52 76.5 76.5z" />
    <glyph glyph-name="s" unicode="s" horiz-adv-x="553" 
d="M37 53l54 114q77 -57 185 -57q93 0 93 36q0 15 -17 21t-59 10l-40 5q-101 13 -152 47t-51 106q0 78 60 123t167 45q88 0 143.5 -33t83.5 -88l-122 -53q-10 28 -37 41t-64 13q-39 0 -61 -11t-22 -27q0 -15 21.5 -21.5t79.5 -14.5q76 -10 122 -24.5t72.5 -45t26.5 -83.5
q0 -84 -65.5 -126.5t-181.5 -42.5q-140 0 -236 66z" />
    <glyph glyph-name="t" unicode="t" horiz-adv-x="450" 
d="M252 361v-184q0 -60 69 -60q43 0 86 21v-127q-54 -24 -119 -24q-83 0 -133 43t-50 127v204h-82v129h82v150h147v-150h161v-129h-161z" />
    <glyph glyph-name="u" unicode="u" horiz-adv-x="605" 
d="M542 490v-490h-147v60q-31 -37 -69.5 -55t-89.5 -18q-86 0 -135 52t-49 141v310h147v-297q0 -34 22 -54.5t59 -20.5q64 0 115 63v309h147z" />
    <glyph glyph-name="v" unicode="v" horiz-adv-x="595" 
d="M10 484v6h157l131 -321l130 321h157v-6l-213 -484h-148z" />
    <glyph glyph-name="w" unicode="w" horiz-adv-x="799" 
d="M15 484v6h151l82 -296l103 282h97l103 -282l82 296h151v-6l-161 -484h-121l-102 263l-103 -263h-121z" />
    <glyph glyph-name="x" unicode="x" horiz-adv-x="580" 
d="M20 7l172 245l-162 232v6h163l97 -149l97 149h163v-6l-162 -232l172 -245v-7h-163l-107 162l-107 -162h-163v7z" />
    <glyph glyph-name="y" unicode="y" horiz-adv-x="595" 
d="M585 490v-6l-284 -684h-159v6l95 201l-222 477v6h159l134 -317l118 317h159z" />
    <glyph glyph-name="z" unicode="z" horiz-adv-x="529" 
d="M486 129v-129h-443v98l230 263h-223v129h429v-99l-229 -262h236z" />
    <glyph glyph-name="braceleft" unicode="{" horiz-adv-x="408" 
d="M150 4v126q0 53 -25.5 74.5t-79.5 21.5v148q54 0 79.5 21.5t25.5 74.5v126q0 195 208 192l40 -117q-51 -5 -74.5 -25.5t-23.5 -74.5v-127q0 -52 -19 -88t-70 -56q51 -20 70 -56t19 -88v-127q0 -54 23 -74.5t75 -25.5l-40 -117q-208 -3 -208 192z" />
    <glyph glyph-name="bar" unicode="|" horiz-adv-x="275" 
d="M193 700v-900h-110v900h110z" />
    <glyph glyph-name="braceright" unicode="}" horiz-adv-x="408" 
d="M10 -71q52 5 75 25.5t23 74.5v127q0 52 19 88t70 56q-51 20 -70 56t-19 88v127q0 54 -23.5 74.5t-74.5 25.5l40 117q208 3 208 -192v-126q0 -53 25.5 -74.5t79.5 -21.5v-148q-54 0 -79.5 -21.5t-25.5 -74.5v-126q0 -195 -208 -192z" />
    <glyph glyph-name="asciitilde" unicode="~" horiz-adv-x="703" 
d="M408 249.5q-30 11.5 -71 34.5q-39 20 -60.5 29t-45.5 9q-29 0 -45.5 -16.5t-37.5 -51.5l-83 56q29 69 67.5 111.5t102.5 42.5q33 0 61.5 -11t69.5 -34q36 -20 59 -29.5t48 -9.5q21 0 35.5 9t23.5 21t24 38l82 -62q-27 -67 -65.5 -107.5t-100.5 -40.5q-34 0 -64 11.5z" />
    <glyph glyph-name="exclamdown" unicode="&#xa1;" horiz-adv-x="325" 
d="M232 475.5q28 -27.5 28 -67.5t-28 -67.5t-69 -27.5q-42 0 -70 27.5t-28 67.5t28 67.5t70 27.5q41 0 69 -27.5zM83 -60l25 305h110l25 -305v-150h-160v150z" />
    <glyph glyph-name="cent" unicode="&#xa2;" horiz-adv-x="577" 
d="M378.5 139q25.5 15 43.5 45l120 -69q-29 -57 -87.5 -92.5t-141.5 -35.5q-38 0 -67 7l-39 -108l-65 23l39 108q-64 32 -100 92t-36 136q0 71 33.5 130t94.5 93.5t140 34.5q23 0 44 -3l42 114l63 -24l-39 -107q41 -17 71 -45t48 -63l-118 -67q-19 32 -47 46l-83 -229
q7 -1 21 -1q38 0 63.5 15zM230 151l79 216q-55 -2 -87.5 -35.5t-32.5 -85.5q0 -62 41 -95z" />
    <glyph glyph-name="sterling" unicode="&#xa3;" horiz-adv-x="735" 
d="M710 143v-143h-660v143h23q41 0 59 17t18 56v61h-80v126h80v53q0 72 30 130t90.5 92.5t147.5 34.5q98 0 159 -39t96 -108l-131 -69q-16 35 -42.5 53.5t-73.5 18.5q-58 0 -87 -31.5t-29 -85.5v-49h275v-126h-275v-51q0 -32 -7 -51.5t-24 -31.5h431z" />
    <glyph glyph-name="yen" unicode="&#xa5;" horiz-adv-x="760" 
d="M731 691l-216 -329h130v-91h-184v-52h184v-91h-184v-128h-160v128h-186v91h186v52h-186v91h132l-216 329v9h175l175 -279l175 279h175v-9z" />
    <glyph glyph-name="copyright" unicode="&#xa9;" horiz-adv-x="839" 
d="M227.5 35q-84.5 48 -132 131.5t-47.5 183.5t47.5 183.5t132 131.5t192.5 48t192.5 -48t132 -131.5t47.5 -183.5t-47.5 -183.5t-132 -131.5t-192.5 -48t-192.5 48zM578.5 84.5q70.5 39.5 111 109t40.5 156.5t-40.5 156.5t-111 109t-158.5 39.5t-159 -39.5t-111 -109
t-40 -156.5t40 -156.5t111 -109t159 -39.5t158.5 39.5zM323.5 180.5q-45.5 25.5 -71 70t-25.5 99.5t25.5 99.5t71 70t101.5 25.5q60 0 102.5 -27t64.5 -70l-92 -53q-13 21 -31 32.5t-45 11.5q-39 0 -62 -23.5t-23 -65.5t23 -65.5t62 -23.5q27 0 45 11.5t31 32.5l92 -52
q-22 -43 -64.5 -70.5t-102.5 -27.5q-56 0 -101.5 25.5z" />
    <glyph glyph-name="guillemotleft" unicode="&#xab;" horiz-adv-x="654" 
d="M50 241v8l210 209l89 -89l-124 -124l124 -124l-89 -89zM305 241v8l210 209l89 -89l-124 -124l124 -124l-89 -89z" />
    <glyph glyph-name="registered" unicode="&#xae;" horiz-adv-x="839" 
d="M612.5 665q84.5 -48 132 -131.5t47.5 -183.5t-47.5 -183.5t-132 -131.5t-192.5 -48t-192.5 48t-132 131.5t-47.5 183.5t47.5 183.5t132 131.5t192.5 48t192.5 -48zM578.5 84.5q70.5 39.5 111 109t40.5 156.5t-40.5 156.5t-111 109t-158.5 39.5t-159 -39.5t-111 -109
t-40 -156.5t40 -156.5t111 -109t159 -39.5t158.5 39.5zM586 338q-17 -30 -47 -46l89 -122v-4h-113l-79 110h-60v-110h-109v370h203q58 0 95.5 -37t37.5 -93q0 -38 -17 -68zM376 362h74q19 0 31 11t12 30q0 18 -12 28t-31 10h-74v-79z" />
    <glyph glyph-name="degree" unicode="&#xb0;" horiz-adv-x="435" 
d="M130.5 495q-39.5 22 -62.5 59.5t-23 83.5t23 84t62.5 59.5t87.5 21.5t87.5 -21.5t62 -59.5t22.5 -84t-22.5 -83.5t-62 -59.5t-87.5 -22t-87.5 22zM261 596q17 16 17 42t-17 42.5t-43 16.5t-43 -16.5t-17 -42.5t17 -42t43 -16t43 16z" />
    <glyph glyph-name="plusminus" unicode="&#xb1;" horiz-adv-x="690" 
d="M620 524v-141h-203v-157h-143v157h-204v141h204v157h143v-157h203zM70 170h550v-141h-550v141z" />
    <glyph glyph-name="periodcentered" unicode="&#xb7;" horiz-adv-x="295" 
d="M78 282.5q-28 27.5 -28 67.5t28 67.5t70 27.5q41 0 69 -27.5t28 -67.5t-28 -67.5t-69 -27.5q-42 0 -70 27.5z" />
    <glyph glyph-name="guillemotright" unicode="&#xbb;" horiz-adv-x="654" 
d="M50 121l124 124l-124 124l89 89l210 -209v-8l-210 -209zM305 121l124 124l-124 124l89 89l210 -209v-8l-210 -209z" />
    <glyph glyph-name="questiondown" unicode="&#xbf;" horiz-adv-x="640" 
d="M394 475.5q28 -27.5 28 -67.5t-28 -67.5t-70 -27.5q-41 0 -69 27.5t-28 67.5t28 67.5t69 27.5q42 0 70 -27.5zM448 178l-163 -109q-39 -28 -56 -46.5t-17 -40.5q0 -27 26.5 -43.5t76.5 -16.5q58 0 100 23t60 61l135 -74q-40 -70 -116 -112.5t-175 -42.5q-84 0 -145 25.5
t-92.5 69.5t-31.5 100q0 64 34 107.5t102 90.5l139 96z" />
    <glyph glyph-name="Agrave" unicode="&#xc0;" horiz-adv-x="795" 
d="M783 9v-9h-172l-50 122h-326l-50 -122h-172v9l301 691h167zM505 260l-107 263l-107 -263h214zM505 770h-135l-130 160h175z" />
    <glyph glyph-name="Aacute" unicode="&#xc1;" horiz-adv-x="795" 
d="M783 9v-9h-172l-50 122h-326l-50 -122h-172v9l301 691h167zM505 260l-107 263l-107 -263h214zM555 930l-130 -160h-135l90 160h175z" />
    <glyph glyph-name="Acircumflex" unicode="&#xc2;" horiz-adv-x="795" 
d="M783 9v-9h-172l-50 122h-326l-50 -122h-172v9l301 691h167zM505 260l-107 263l-107 -263h214zM466 770l-67 80l-68 -80h-123l110 165h160l110 -165h-122z" />
    <glyph glyph-name="Atilde" unicode="&#xc3;" horiz-adv-x="795" 
d="M783 9v-9h-172l-50 122h-326l-50 -122h-172v9l301 691h167zM505 260l-107 263l-107 -263h214zM207 816q19 54 45 82t63 28q20 0 38.5 -7.5t43.5 -20.5q20 -11 31.5 -16t22.5 -5q17 0 28.5 12.5t20.5 39.5l76 -61q-19 -54 -45 -82t-63 -28q-20 0 -38.5 7.5t-43.5 20.5
q-20 11 -31.5 16t-22.5 5q-16 0 -27.5 -12.5t-21.5 -39.5z" />
    <glyph glyph-name="Adieresis" unicode="&#xc4;" horiz-adv-x="795" 
d="M783 9v-9h-172l-50 122h-326l-50 -122h-172v9l301 691h167zM505 260l-107 263l-107 -263h214zM239 789q-24 24 -24 56t24 56t56 24t56 -24t24 -56t-24 -56t-56 -24t-56 24zM444 789q-24 24 -24 56t24 56t56 24t56 -24t24 -56q0 -31 -24 -55.5t-56 -24.5t-56 24z" />
    <glyph glyph-name="Aring" unicode="&#xc5;" horiz-adv-x="795" 
d="M783 9v-9h-172l-50 122h-326l-50 -122h-172v9l294 675q-39 36 -39 89q0 52 37.5 88t92.5 36t92.5 -35.5t37.5 -88.5q0 -27 -10.5 -50t-28.5 -40zM366 805.5q-12 -12.5 -12 -32.5t12 -32t32 -12t32.5 12t12.5 32t-12.5 32.5t-32.5 12.5t-32 -12.5zM505 260l-107 263
l-107 -263h214z" />
    <glyph glyph-name="AE" unicode="&#xc6;" horiz-adv-x="1087" 
d="M1047 148v-148h-515v118h-263l-79 -118h-180v9l474 691h543v-148h-340v-127h205v-148h-205v-129h360zM532 255v258l-172 -258h172z" />
    <glyph glyph-name="Ccedilla" unicode="&#xc7;" horiz-adv-x="762" 
d="M633.5 53q-64.5 -47 -150.5 -61l-16 -39q40 -4 67.5 -26t27.5 -61q0 -48 -43.5 -73.5t-110.5 -25.5q-38 0 -68 6t-66 22l34 88q22 -10 41.5 -14.5t45.5 -4.5q42 0 42 23q0 30 -92 26l30 76q-98 8 -172.5 58t-114.5 129.5t-40 173.5q0 101 44.5 184t127 131t191.5 48
q110 0 193 -49t121 -131l-134 -77q-21 49 -68 78t-110 29t-109 -28t-70 -76.5t-24 -108.5t24.5 -108.5t71.5 -76.5t110 -28q64 0 111.5 29t68.5 78l134 -76q-32 -68 -96.5 -115z" />
    <glyph glyph-name="Egrave" unicode="&#xc8;" horiz-adv-x="700" 
d="M655 148v-148h-570v700h560v-148h-400v-127h255v-148h-255v-129h410zM477 770h-135l-130 160h175z" />
    <glyph glyph-name="Eacute" unicode="&#xc9;" horiz-adv-x="700" 
d="M655 148v-148h-570v700h560v-148h-400v-127h255v-148h-255v-129h410zM527 930l-130 -160h-135l90 160h175z" />
    <glyph glyph-name="Ecircumflex" unicode="&#xca;" horiz-adv-x="700" 
d="M655 148v-148h-570v700h560v-148h-400v-127h255v-148h-255v-129h410zM438 770l-67 80l-68 -80h-123l110 165h160l110 -165h-122z" />
    <glyph glyph-name="Edieresis" unicode="&#xcb;" horiz-adv-x="700" 
d="M655 148v-148h-570v700h560v-148h-400v-127h255v-148h-255v-129h410zM211 789q-24 24 -24 56t24 56t56 24t56 -24t24 -56t-24 -56t-56 -24t-56 24zM416 789q-24 24 -24 56t24 56t56 24t56 -24t24 -56q0 -31 -24 -55.5t-56 -24.5t-56 24z" />
    <glyph glyph-name="Igrave" unicode="&#xcc;" horiz-adv-x="325" 
d="M243 700v-700h-160v700h160zM270 770h-135l-130 160h175z" />
    <glyph glyph-name="Iacute" unicode="&#xcd;" horiz-adv-x="325" 
d="M243 700v-700h-160v700h160zM320 930l-130 -160h-135l90 160h175z" />
    <glyph glyph-name="Icircumflex" unicode="&#xce;" horiz-adv-x="325" 
d="M243 700v-700h-160v700h160zM231 770l-67 80l-68 -80h-123l110 165h160l110 -165h-122z" />
    <glyph glyph-name="Idieresis" unicode="&#xcf;" horiz-adv-x="325" 
d="M243 700v-700h-160v700h160zM4 789q-24 24 -24 56t24 56t56 24t56 -24t24 -56t-24 -56t-56 -24t-56 24zM209 789q-24 24 -24 56t24 56t56 24t56 -24t24 -56q0 -31 -24 -55.5t-56 -24.5t-56 24z" />
    <glyph glyph-name="Eth" unicode="&#xd0;" horiz-adv-x="790" 
d="M563.5 654q83.5 -46 131.5 -126t48 -178t-48 -178t-131.5 -126t-185.5 -46h-295v286h-73v128h73v286h295q102 0 185.5 -46zM484 173.5q47 25.5 73 71.5t26 105t-26 105t-73 71.5t-106 25.5h-135v-138h147v-128h-147v-138h135q59 0 106 25.5z" />
    <glyph glyph-name="Ntilde" unicode="&#xd1;" horiz-adv-x="815" 
d="M733 700v-700h-140l-350 435v-435h-160v700h140l350 -435v435h160zM217 816q19 54 45 82t63 28q20 0 38.5 -7.5t43.5 -20.5q20 -11 31.5 -16t22.5 -5q17 0 28.5 12.5t20.5 39.5l76 -61q-19 -54 -45 -82t-63 -28q-20 0 -38.5 7.5t-43.5 20.5q-20 11 -31.5 16t-22.5 5
q-16 0 -27.5 -12.5t-21.5 -39.5z" />
    <glyph glyph-name="Ograve" unicode="&#xd2;" horiz-adv-x="845" 
d="M226.5 35.5q-85.5 48.5 -132 131.5t-46.5 183t46.5 183t132 131.5t196.5 48.5t196.5 -48.5t132 -131.5t46.5 -183t-46.5 -183t-132 -131.5t-196.5 -48.5t-196.5 48.5zM535.5 165q48.5 28 74.5 76.5t26 108.5q0 61 -26 109.5t-74.5 76t-112.5 27.5q-65 0 -113 -27.5
t-74 -76t-26 -109.5q0 -60 26 -108.5t74.5 -76.5t112.5 -28t112.5 28zM530 770h-135l-130 160h175z" />
    <glyph glyph-name="Oacute" unicode="&#xd3;" horiz-adv-x="845" 
d="M226.5 35.5q-85.5 48.5 -132 131.5t-46.5 183t46.5 183t132 131.5t196.5 48.5t196.5 -48.5t132 -131.5t46.5 -183t-46.5 -183t-132 -131.5t-196.5 -48.5t-196.5 48.5zM535.5 165q48.5 28 74.5 76.5t26 108.5q0 61 -26 109.5t-74.5 76t-112.5 27.5q-65 0 -113 -27.5
t-74 -76t-26 -109.5q0 -60 26 -108.5t74.5 -76.5t112.5 -28t112.5 28zM580 930l-130 -160h-135l90 160h175z" />
    <glyph glyph-name="Ocircumflex" unicode="&#xd4;" horiz-adv-x="845" 
d="M226.5 35.5q-85.5 48.5 -132 131.5t-46.5 183t46.5 183t132 131.5t196.5 48.5t196.5 -48.5t132 -131.5t46.5 -183t-46.5 -183t-132 -131.5t-196.5 -48.5t-196.5 48.5zM535.5 165q48.5 28 74.5 76.5t26 108.5q0 61 -26 109.5t-74.5 76t-112.5 27.5q-65 0 -113 -27.5
t-74 -76t-26 -109.5q0 -60 26 -108.5t74.5 -76.5t112.5 -28t112.5 28zM491 770l-67 80l-68 -80h-123l110 165h160l110 -165h-122z" />
    <glyph glyph-name="Otilde" unicode="&#xd5;" horiz-adv-x="845" 
d="M226.5 35.5q-85.5 48.5 -132 131.5t-46.5 183t46.5 183t132 131.5t196.5 48.5t196.5 -48.5t132 -131.5t46.5 -183t-46.5 -183t-132 -131.5t-196.5 -48.5t-196.5 48.5zM535.5 165q48.5 28 74.5 76.5t26 108.5q0 61 -26 109.5t-74.5 76t-112.5 27.5q-65 0 -113 -27.5
t-74 -76t-26 -109.5q0 -60 26 -108.5t74.5 -76.5t112.5 -28t112.5 28zM232 816q19 54 45 82t63 28q20 0 38.5 -7.5t43.5 -20.5q20 -11 31.5 -16t22.5 -5q17 0 28.5 12.5t20.5 39.5l76 -61q-19 -54 -45 -82t-63 -28q-20 0 -38.5 7.5t-43.5 20.5q-20 11 -31.5 16t-22.5 5
q-16 0 -27.5 -12.5t-21.5 -39.5z" />
    <glyph glyph-name="Odieresis" unicode="&#xd6;" horiz-adv-x="845" 
d="M226.5 35.5q-85.5 48.5 -132 131.5t-46.5 183t46.5 183t132 131.5t196.5 48.5t196.5 -48.5t132 -131.5t46.5 -183t-46.5 -183t-132 -131.5t-196.5 -48.5t-196.5 48.5zM535.5 165q48.5 28 74.5 76.5t26 108.5q0 61 -26 109.5t-74.5 76t-112.5 27.5q-65 0 -113 -27.5
t-74 -76t-26 -109.5q0 -60 26 -108.5t74.5 -76.5t112.5 -28t112.5 28zM264 789q-24 24 -24 56t24 56t56 24t56 -24t24 -56t-24 -56t-56 -24t-56 24zM469 789q-24 24 -24 56t24 56t56 24t56 -24t24 -56q0 -31 -24 -55.5t-56 -24.5t-56 24z" />
    <glyph glyph-name="multiply" unicode="&#xd7;" horiz-adv-x="701" 
d="M452 351l184 -168l-78 -114l-207 189l-208 -189l-78 114l184 168l-184 167l78 114l208 -189l207 189l78 -114z" />
    <glyph glyph-name="Oslash" unicode="&#xd8;" horiz-adv-x="845" 
d="M765.5 504.5q32.5 -72.5 32.5 -154.5q0 -100 -46.5 -183t-132 -131.5t-196.5 -48.5q-93 0 -171 36l-54 -78l-74 52l52 74q-61 49 -94.5 122t-33.5 157q0 100 46.5 183t132 131.5t196.5 48.5q95 0 176 -38l49 70l73 -51l-47 -67q59 -50 91.5 -122.5zM224.5 267.5
q14.5 -38.5 41.5 -67.5l244 347q-38 16 -87 16q-65 0 -113 -27.5t-74 -76t-26 -109.5q0 -44 14.5 -82.5zM535.5 165q48.5 28 74.5 76.5t26 108.5q0 88 -53 147l-241 -346q37 -14 81 -14q64 0 112.5 28z" />
    <glyph glyph-name="Ugrave" unicode="&#xd9;" horiz-adv-x="775" 
d="M221.5 19.5q-72.5 32.5 -113 98.5t-40.5 162v420h160v-420q0 -71 43 -107t118 -36q74 0 116.5 36t42.5 107v420h160v-420q0 -96 -41 -161.5t-113 -98.5t-166 -33t-166.5 32.5zM495 770h-135l-130 160h175z" />
    <glyph glyph-name="Uacute" unicode="&#xda;" horiz-adv-x="775" 
d="M221.5 19.5q-72.5 32.5 -113 98.5t-40.5 162v420h160v-420q0 -71 43 -107t118 -36q74 0 116.5 36t42.5 107v420h160v-420q0 -96 -41 -161.5t-113 -98.5t-166 -33t-166.5 32.5zM545 930l-130 -160h-135l90 160h175z" />
    <glyph glyph-name="Ucircumflex" unicode="&#xdb;" horiz-adv-x="775" 
d="M221.5 19.5q-72.5 32.5 -113 98.5t-40.5 162v420h160v-420q0 -71 43 -107t118 -36q74 0 116.5 36t42.5 107v420h160v-420q0 -96 -41 -161.5t-113 -98.5t-166 -33t-166.5 32.5zM456 770l-67 80l-68 -80h-123l110 165h160l110 -165h-122z" />
    <glyph glyph-name="Udieresis" unicode="&#xdc;" horiz-adv-x="775" 
d="M221.5 19.5q-72.5 32.5 -113 98.5t-40.5 162v420h160v-420q0 -71 43 -107t118 -36q74 0 116.5 36t42.5 107v420h160v-420q0 -96 -41 -161.5t-113 -98.5t-166 -33t-166.5 32.5zM229 789q-24 24 -24 56t24 56t56 24t56 -24t24 -56t-24 -56t-56 -24t-56 24zM434 789
q-24 24 -24 56t24 56t56 24t56 -24t24 -56q0 -31 -24 -55.5t-56 -24.5t-56 24z" />
    <glyph glyph-name="Yacute" unicode="&#xdd;" horiz-adv-x="735" 
d="M718 691l-270 -412v-279h-160v279l-270 412v9h175l175 -279l175 279h175v-9zM525 930l-130 -160h-135l90 160h175z" />
    <glyph glyph-name="Thorn" unicode="&#xde;" horiz-adv-x="753" 
d="M593 559q56 -31 88 -85.5t32 -123.5t-32 -123.5t-88 -85.5t-125 -31h-225v-110h-160v700h160v-110h225q69 0 125 -31zM523.5 278.5q29.5 27.5 29.5 70.5t-29.5 70.5t-74.5 27.5h-206v-196h206q45 0 74.5 27.5z" />
    <glyph glyph-name="germandbls" unicode="&#xdf;" horiz-adv-x="617" 
d="M278 2l18 125q36 -10 72 -10q34 0 53 14t19 41q0 25 -14 44.5t-43 47.5q-29 27 -43.5 47t-14.5 46q0 19 7.5 35.5t22.5 39.5q16 24 24 41.5t8 38.5q0 29 -20.5 49.5t-60.5 20.5q-44 0 -70 -27t-26 -78v-477h-147v474q0 69 28 123t83 85t134 31q68 0 119.5 -24t79 -64.5
t27.5 -88.5q0 -33 -11 -59t-32 -58q-13 -21 -18 -31.5t-5 -20.5q0 -12 8.5 -23.5t30.5 -35.5q38 -39 59.5 -74t21.5 -84q0 -79 -54.5 -121t-136.5 -42q-65 0 -119 15z" />
    <glyph glyph-name="agrave" unicode="&#xe0;" horiz-adv-x="643" 
d="M580 490v-490h-147v61q-29 -35 -69.5 -54.5t-91.5 -19.5q-67 0 -120.5 33t-83.5 92t-30 133q0 75 30 133.5t83.5 91.5t120.5 33q101 0 161 -74v61h147zM433 312q-43 63 -117 63q-59 0 -93 -35.5t-34 -94.5q0 -58 34 -94t93 -36q73 0 117 63v134zM422 555h-118l-106 118
h155z" />
    <glyph glyph-name="aacute" unicode="&#xe1;" horiz-adv-x="643" 
d="M580 490v-490h-147v61q-29 -35 -69.5 -54.5t-91.5 -19.5q-67 0 -120.5 33t-83.5 92t-30 133q0 75 30 133.5t83.5 91.5t120.5 33q101 0 161 -74v61h147zM433 312q-43 63 -117 63q-59 0 -93 -35.5t-34 -94.5q0 -58 34 -94t93 -36q73 0 117 63v134zM456 673l-105 -118h-118
l68 118h155z" />
    <glyph glyph-name="acircumflex" unicode="&#xe2;" horiz-adv-x="643" 
d="M580 490v-490h-147v61q-29 -35 -69.5 -54.5t-91.5 -19.5q-67 0 -120.5 33t-83.5 92t-30 133q0 75 30 133.5t83.5 91.5t120.5 33q101 0 161 -74v61h147zM433 312q-43 63 -117 63q-59 0 -93 -35.5t-34 -94.5q0 -58 34 -94t93 -36q73 0 117 63v134zM381 550l-51 57l-51 -57
h-97l80 123h136l80 -123h-97z" />
    <glyph glyph-name="atilde" unicode="&#xe3;" horiz-adv-x="643" 
d="M580 490v-490h-147v61q-29 -35 -69.5 -54.5t-91.5 -19.5q-67 0 -120.5 33t-83.5 92t-30 133q0 75 30 133.5t83.5 91.5t120.5 33q101 0 161 -74v61h147zM433 312q-43 63 -117 63q-59 0 -93 -35.5t-34 -94.5q0 -58 34 -94t93 -36q73 0 117 63v134zM323 560q-12 6 -24 11
t-22 5q-23 0 -36 -37l-62 50q15 42 36 64.5t52 22.5q25 0 61 -20q3 -1 18.5 -8.5t28.5 -7.5q24 0 37 37l61 -48q-15 -43 -35.5 -66t-51.5 -23q-25 0 -63 20z" />
    <glyph glyph-name="adieresis" unicode="&#xe4;" horiz-adv-x="643" 
d="M580 490v-490h-147v61q-29 -35 -69.5 -54.5t-91.5 -19.5q-67 0 -120.5 33t-83.5 92t-30 133q0 75 30 133.5t83.5 91.5t120.5 33q101 0 161 -74v61h147zM433 312q-43 63 -117 63q-59 0 -93 -35.5t-34 -94.5q0 -58 34 -94t93 -36q73 0 117 63v134zM203 556.5
q-19 18.5 -19 43.5t19 44t44 19t43.5 -19t18.5 -44t-18.5 -43.5t-43.5 -18.5t-44 18.5zM370 556.5q-19 18.5 -19 43.5q0 26 18.5 44.5t44.5 18.5q25 0 43.5 -19t18.5 -44q0 -24 -19 -43t-43 -19q-25 0 -44 18.5z" />
    <glyph glyph-name="aring" unicode="&#xe5;" horiz-adv-x="643" 
d="M580 490v-490h-147v61q-29 -35 -69.5 -54.5t-91.5 -19.5q-67 0 -120.5 33t-83.5 92t-30 133q0 75 30 133.5t83.5 91.5t120.5 33q101 0 161 -74v61h147zM433 312q-43 63 -117 63q-59 0 -93 -35.5t-34 -94.5q0 -58 34 -94t93 -36q73 0 117 63v134zM245 567.5
q-35 33.5 -35 83.5q0 49 35 82.5t87 33.5t87 -33.5t35 -82.5q0 -50 -35 -83.5t-87 -33.5t-87 33.5zM360 623.5q11 10.5 11 27.5t-11 27.5t-28 10.5t-27.5 -10.5t-10.5 -27.5t10.5 -27.5t27.5 -10.5t28 10.5z" />
    <glyph glyph-name="ae" unicode="&#xe6;" horiz-adv-x="988" 
d="M646 128.5q38 -22.5 91 -22.5q44 0 78.5 11t66.5 33l50 -102q-44 -31 -85.5 -46t-94.5 -15q-124 0 -187 76v-63h-137v61q-29 -35 -69.5 -54.5t-91.5 -19.5q-64 0 -116.5 33t-82.5 91.5t-30 133.5t30 133.5t82.5 91.5t116.5 33q101 0 161 -74v61h137v-61q58 74 158 74
q66 0 118.5 -32.5t82 -92t29.5 -138.5q0 -30 -2 -46h-358q15 -43 53 -65.5zM806 286q-11 103 -105 103q-47 0 -76 -26t-37 -77h218zM428 312q-43 63 -116 63q-56 0 -89.5 -35.5t-33.5 -94.5q0 -58 33.5 -94t89.5 -36q72 0 116 63v134z" />
    <glyph glyph-name="ccedilla" unicode="&#xe7;" horiz-adv-x="565" 
d="M470.5 36q-44.5 -34 -104.5 -44l-13 -31q32 -3 54 -21t22 -49q0 -39 -35 -59t-88 -20q-31 0 -55 5t-52 17l27 71q35 -15 69 -15q33 0 33 18q0 24 -73 21l23 59q-75 7 -129 42.5t-82.5 91.5t-28.5 123q0 72 32 130.5t93 93t144 34.5q81 0 141.5 -35.5t87.5 -97.5l-118 -62
q-14 30 -41.5 47t-65.5 17q-60 0 -92 -35t-32 -92t32.5 -92t92.5 -35q39 0 66.5 17t41.5 48l118 -63q-23 -50 -67.5 -84z" />
    <glyph glyph-name="egrave" unicode="&#xe8;" horiz-adv-x="593" 
d="M251 128.5q38 -19.5 90 -19.5q41 0 75 11t68 34l49 -106q-85 -61 -202 -61q-89 0 -155 32.5t-101 91.5t-35 136q0 72 32 130.5t91.5 92t139.5 33.5q117 0 186 -71.5t69 -197.5q0 -24 -3 -50h-358q16 -36 54 -55.5zM412 288q-14 98 -108 98q-46 0 -75 -25.5t-39 -72.5h222
zM399 550h-118l-106 118h155z" />
    <glyph glyph-name="eacute" unicode="&#xe9;" horiz-adv-x="593" 
d="M251 128.5q38 -19.5 90 -19.5q41 0 75 11t68 34l49 -106q-85 -61 -202 -61q-89 0 -155 32.5t-101 91.5t-35 136q0 72 32 130.5t91.5 92t139.5 33.5q117 0 186 -71.5t69 -197.5q0 -24 -3 -50h-358q16 -36 54 -55.5zM412 288q-14 98 -108 98q-46 0 -75 -25.5t-39 -72.5h222
zM433 668l-105 -118h-118l68 118h155z" />
    <glyph glyph-name="ecircumflex" unicode="&#xea;" horiz-adv-x="593" 
d="M251 128.5q38 -19.5 90 -19.5q41 0 75 11t68 34l49 -106q-85 -61 -202 -61q-89 0 -155 32.5t-101 91.5t-35 136q0 72 32 130.5t91.5 92t139.5 33.5q117 0 186 -71.5t69 -197.5q0 -24 -3 -50h-358q16 -36 54 -55.5zM412 288q-14 98 -108 98q-46 0 -75 -25.5t-39 -72.5h222
zM358 545l-51 57l-51 -57h-97l80 123h136l80 -123h-97z" />
    <glyph glyph-name="edieresis" unicode="&#xeb;" horiz-adv-x="593" 
d="M251 128.5q38 -19.5 90 -19.5q41 0 75 11t68 34l49 -106q-85 -61 -202 -61q-89 0 -155 32.5t-101 91.5t-35 136q0 72 32 130.5t91.5 92t139.5 33.5q117 0 186 -71.5t69 -197.5q0 -24 -3 -50h-358q16 -36 54 -55.5zM412 288q-14 98 -108 98q-46 0 -75 -25.5t-39 -72.5h222
zM180 551.5q-19 18.5 -19 43.5t19 44t44 19t43.5 -19t18.5 -44t-18.5 -43.5t-43.5 -18.5t-44 18.5zM347 551.5q-19 18.5 -19 43.5q0 26 18.5 44.5t44.5 18.5q25 0 43.5 -19t18.5 -44q0 -24 -19 -43t-43 -19q-25 0 -44 18.5z" />
    <glyph glyph-name="igrave" unicode="&#xec;" horiz-adv-x="272" 
d="M210 0h-147v490h147v-490zM228 550h-118l-106 118h155z" />
    <glyph glyph-name="iacute" unicode="&#xed;" horiz-adv-x="272" 
d="M210 0h-147v490h147v-490zM262 668l-105 -118h-118l68 118h155z" />
    <glyph glyph-name="icircumflex" unicode="&#xee;" horiz-adv-x="272" 
d="M210 0h-147v490h147v-490zM187 545l-51 57l-51 -57h-97l80 123h136l80 -123h-97z" />
    <glyph glyph-name="idieresis" unicode="&#xef;" horiz-adv-x="272" 
d="M210 0h-147v490h147v-490zM9 551.5q-19 18.5 -19 43.5t19 44t44 19t43.5 -19t18.5 -44t-18.5 -43.5t-43.5 -18.5t-44 18.5zM176 551.5q-19 18.5 -19 43.5q0 26 18.5 44.5t44.5 18.5q25 0 43.5 -19t18.5 -44q0 -24 -19 -43t-43 -19q-25 0 -44 18.5z" />
    <glyph glyph-name="eth" unicode="&#xf0;" horiz-adv-x="592" 
d="M512 443q43 -85 43 -184q0 -81 -34 -143t-95 -95.5t-139 -33.5q-77 0 -134.5 29.5t-88.5 81t-31 115.5t31 112.5t83 75t115 26.5q68 0 117 -29q-32 68 -107 118l-120 -78l-48 73l80 52q-56 23 -104 37l59 113q95 -24 172 -68l99 65l48 -73l-69 -45q80 -64 123 -149z
M375 153q32 37 32 107v5q-26 23 -58 33.5t-60 10.5q-47 0 -77 -26t-30 -70q0 -43 28 -70t77 -27q56 0 88 37z" />
    <glyph glyph-name="ntilde" unicode="&#xf1;" horiz-adv-x="605" 
d="M504 451q49 -52 49 -141v-310h-147v297q0 34 -22 54.5t-59 20.5q-64 0 -115 -63v-309h-147v490h147v-60q31 37 69.5 55t89.5 18q86 0 135 -52zM301 560q-12 6 -24 11t-22 5q-23 0 -36 -37l-62 50q15 42 36 64.5t52 22.5q25 0 61 -20q3 -1 18.5 -8.5t28.5 -7.5q24 0 37 37
l61 -48q-15 -43 -35.5 -66t-51.5 -23q-25 0 -63 20z" />
    <glyph glyph-name="ograve" unicode="&#xf2;" horiz-adv-x="630" 
d="M168 21.5q-63 34.5 -96.5 93.5t-33.5 130q0 72 33.5 130.5t96 93t147.5 34.5t148 -34.5t96.5 -93t33.5 -130.5q0 -71 -33.5 -130t-97 -93.5t-147.5 -34.5t-147 34.5zM407 152q35 36 35 93q0 58 -34.5 93.5t-92.5 35.5q-57 0 -91.5 -35.5t-34.5 -93.5t34.5 -93.5
t91.5 -35.5t92 36zM407 550h-118l-106 118h155z" />
    <glyph glyph-name="oacute" unicode="&#xf3;" horiz-adv-x="630" 
d="M168 21.5q-63 34.5 -96.5 93.5t-33.5 130q0 72 33.5 130.5t96 93t147.5 34.5t148 -34.5t96.5 -93t33.5 -130.5q0 -71 -33.5 -130t-97 -93.5t-147.5 -34.5t-147 34.5zM407 152q35 36 35 93q0 58 -34.5 93.5t-92.5 35.5q-57 0 -91.5 -35.5t-34.5 -93.5t34.5 -93.5
t91.5 -35.5t92 36zM441 668l-105 -118h-118l68 118h155z" />
    <glyph glyph-name="ocircumflex" unicode="&#xf4;" horiz-adv-x="630" 
d="M168 21.5q-63 34.5 -96.5 93.5t-33.5 130q0 72 33.5 130.5t96 93t147.5 34.5t148 -34.5t96.5 -93t33.5 -130.5q0 -71 -33.5 -130t-97 -93.5t-147.5 -34.5t-147 34.5zM407 152q35 36 35 93q0 58 -34.5 93.5t-92.5 35.5q-57 0 -91.5 -35.5t-34.5 -93.5t34.5 -93.5
t91.5 -35.5t92 36zM366 545l-51 57l-51 -57h-97l80 123h136l80 -123h-97z" />
    <glyph glyph-name="otilde" unicode="&#xf5;" horiz-adv-x="630" 
d="M168 21.5q-63 34.5 -96.5 93.5t-33.5 130q0 72 33.5 130.5t96 93t147.5 34.5t148 -34.5t96.5 -93t33.5 -130.5q0 -71 -33.5 -130t-97 -93.5t-147.5 -34.5t-147 34.5zM407 152q35 36 35 93q0 58 -34.5 93.5t-92.5 35.5q-57 0 -91.5 -35.5t-34.5 -93.5t34.5 -93.5
t91.5 -35.5t92 36zM308 555q-12 6 -24 11t-22 5q-23 0 -36 -37l-62 50q15 42 36 64.5t52 22.5q25 0 61 -20q3 -1 18.5 -8.5t28.5 -7.5q24 0 37 37l61 -48q-15 -43 -35.5 -66t-51.5 -23q-25 0 -63 20z" />
    <glyph glyph-name="odieresis" unicode="&#xf6;" horiz-adv-x="630" 
d="M168 21.5q-63 34.5 -96.5 93.5t-33.5 130q0 72 33.5 130.5t96 93t147.5 34.5t148 -34.5t96.5 -93t33.5 -130.5q0 -71 -33.5 -130t-97 -93.5t-147.5 -34.5t-147 34.5zM407 152q35 36 35 93q0 58 -34.5 93.5t-92.5 35.5q-57 0 -91.5 -35.5t-34.5 -93.5t34.5 -93.5
t91.5 -35.5t92 36zM188 551.5q-19 18.5 -19 43.5t19 44t44 19t43.5 -19t18.5 -44t-18.5 -43.5t-43.5 -18.5t-44 18.5zM355 551.5q-19 18.5 -19 43.5q0 26 18.5 44.5t44.5 18.5q25 0 43.5 -19t18.5 -44q0 -24 -19 -43t-43 -19q-25 0 -44 18.5z" />
    <glyph glyph-name="divide" unicode="&#xf7;" horiz-adv-x="690" 
d="M279 518q-27 26 -27 64t27 64t67 26q39 0 65.5 -26t26.5 -64t-26.5 -64t-65.5 -26q-40 0 -67 26zM65 421h560v-141h-560v141zM279 54q-27 26 -27 64t27 64t67 26q39 0 65.5 -26t26.5 -64t-26.5 -64t-65.5 -26q-40 0 -67 26z" />
    <glyph glyph-name="oslash" unicode="&#xf8;" horiz-adv-x="630" 
d="M569 357q24 -52 24 -112q0 -71 -33.5 -130t-97 -93.5t-147.5 -34.5q-65 0 -120 22l-38 -54l-61 42l34 49q-44 36 -68 88t-24 111q0 72 33.5 130.5t96 93t147.5 34.5q63 0 120 -21l33 47l62 -42l-30 -43q45 -35 69 -87zM213 164l143 205q-22 5 -41 5q-57 0 -91.5 -35.5
t-34.5 -93.5q0 -48 24 -81zM407 152q35 36 35 93q0 48 -25 81l-143 -204q18 -6 41 -6q57 0 92 36z" />
    <glyph glyph-name="ugrave" unicode="&#xf9;" horiz-adv-x="605" 
d="M542 490v-490h-147v60q-31 -37 -69.5 -55t-89.5 -18q-86 0 -135 52t-49 141v310h147v-297q0 -34 22 -54.5t59 -20.5q64 0 115 63v309h147zM392 550h-118l-106 118h155z" />
    <glyph glyph-name="uacute" unicode="&#xfa;" horiz-adv-x="605" 
d="M542 490v-490h-147v60q-31 -37 -69.5 -55t-89.5 -18q-86 0 -135 52t-49 141v310h147v-297q0 -34 22 -54.5t59 -20.5q64 0 115 63v309h147zM426 668l-105 -118h-118l68 118h155z" />
    <glyph glyph-name="ucircumflex" unicode="&#xfb;" horiz-adv-x="605" 
d="M542 490v-490h-147v60q-31 -37 -69.5 -55t-89.5 -18q-86 0 -135 52t-49 141v310h147v-297q0 -34 22 -54.5t59 -20.5q64 0 115 63v309h147zM351 545l-51 57l-51 -57h-97l80 123h136l80 -123h-97z" />
    <glyph glyph-name="udieresis" unicode="&#xfc;" horiz-adv-x="605" 
d="M542 490v-490h-147v60q-31 -37 -69.5 -55t-89.5 -18q-86 0 -135 52t-49 141v310h147v-297q0 -34 22 -54.5t59 -20.5q64 0 115 63v309h147zM173 551.5q-19 18.5 -19 43.5t19 44t44 19t43.5 -19t18.5 -44t-18.5 -43.5t-43.5 -18.5t-44 18.5zM340 551.5q-19 18.5 -19 43.5
q0 26 18.5 44.5t44.5 18.5q25 0 43.5 -19t18.5 -44q0 -24 -19 -43t-43 -19q-25 0 -44 18.5z" />
    <glyph glyph-name="yacute" unicode="&#xfd;" horiz-adv-x="595" 
d="M585 490v-6l-284 -684h-159v6l95 201l-222 477v6h159l134 -317l118 317h159zM426 668l-105 -118h-118l68 118h155z" />
    <glyph glyph-name="thorn" unicode="&#xfe;" horiz-adv-x="643" 
d="M491.5 470q53.5 -33 83.5 -91.5t30 -133.5q0 -74 -30 -133t-83.5 -92t-120.5 -33q-51 0 -91.5 19.5t-69.5 54.5v-261h-147v900h147v-271q60 74 161 74q67 0 120.5 -33zM420 151q34 36 34 94q0 59 -34 94.5t-93 35.5q-74 0 -117 -63v-134q44 -63 117 -63q59 0 93 36z" />
    <glyph glyph-name="ydieresis" unicode="&#xff;" horiz-adv-x="595" 
d="M585 490v-6l-284 -684h-159v6l95 201l-222 477v6h159l134 -317l118 317h159zM173 551.5q-19 18.5 -19 43.5t19 44t44 19t43.5 -19t18.5 -44t-18.5 -43.5t-43.5 -18.5t-44 18.5zM340 551.5q-19 18.5 -19 43.5q0 26 18.5 44.5t44.5 18.5q25 0 43.5 -19t18.5 -44
q0 -24 -19 -43t-43 -19q-25 0 -44 18.5z" />
    <glyph glyph-name="Amacron" unicode="&#x100;" horiz-adv-x="795" 
d="M783 9v-9h-172l-50 122h-326l-50 -122h-172v9l301 691h167zM505 260l-107 263l-107 -263h214zM238 892h320v-117h-320v117z" />
    <glyph glyph-name="amacron" unicode="&#x101;" horiz-adv-x="643" 
d="M580 490v-490h-147v61q-29 -35 -69.5 -54.5t-91.5 -19.5q-67 0 -120.5 33t-83.5 92t-30 133q0 75 30 133.5t83.5 91.5t120.5 33q101 0 161 -74v61h147zM433 312q-43 63 -117 63q-59 0 -93 -35.5t-34 -94.5q0 -58 34 -94t93 -36q73 0 117 63v134zM206 644h248v-94h-248v94
z" />
    <glyph glyph-name="Abreve" unicode="&#x102;" horiz-adv-x="795" 
d="M783 9v-9h-172l-50 122h-326l-50 -122h-172v9l301 691h167zM505 260l-107 263l-107 -263h214zM585 868q-58 -103 -187 -103t-188 103l75 80q21 -35 47.5 -50t65.5 -15t65.5 15t47.5 50z" />
    <glyph glyph-name="abreve" unicode="&#x103;" horiz-adv-x="643" 
d="M580 490v-490h-147v61q-29 -35 -69.5 -54.5t-91.5 -19.5q-67 0 -120.5 33t-83.5 92t-30 133q0 75 30 133.5t83.5 91.5t120.5 33q101 0 161 -74v61h147zM433 312q-43 63 -117 63q-59 0 -93 -35.5t-34 -94.5q0 -58 34 -94t93 -36q73 0 117 63v134zM469 619
q-24 -40 -58.5 -58t-80.5 -18q-94 0 -139 76l56 61q15 -22 34.5 -32.5t48.5 -10.5t48.5 10.5t34.5 32.5z" />
    <glyph glyph-name="Aogonek" unicode="&#x104;" horiz-adv-x="795" 
d="M810 -192q-48 -29 -102 -29q-50 0 -77.5 23.5t-27.5 66.5q0 55 55 131h-47l-50 122h-326l-50 -122h-172v9l301 691h167l302 -691v-9q-48 -61 -48 -88q0 -17 20 -17q14 0 26 6zM505 260l-107 263l-107 -263h214z" />
    <glyph glyph-name="aogonek" unicode="&#x105;" horiz-adv-x="643" 
d="M609 -190q-47 -30 -102 -30q-50 0 -77.5 24t-27.5 65q0 28 13 62t38 69h-20v61q-29 -35 -69.5 -54.5t-91.5 -19.5q-67 0 -120.5 33t-83.5 92t-30 133q0 75 30 133.5t83.5 91.5t120.5 33q101 0 161 -74v61h147v-490q-47 -57 -47 -86q0 -18 21 -18q11 0 25 7zM433 312
q-43 63 -117 63q-59 0 -93 -35.5t-34 -94.5q0 -58 34 -94t93 -36q73 0 117 63v134z" />
    <glyph glyph-name="Cacute" unicode="&#x106;" horiz-adv-x="762" 
d="M221.5 35.5q-83.5 48.5 -128.5 131.5t-45 183q0 101 44.5 184t127 131t191.5 48q110 0 193 -49t121 -131l-134 -77q-21 49 -68 78t-110 29t-109 -28t-70 -76.5t-24 -108.5t24.5 -108.5t71.5 -76.5t110 -28q64 0 111.5 29t68.5 78l134 -76q-38 -82 -122 -131.5t-194 -49.5
q-109 0 -192.5 48.5zM564 930l-130 -160h-135l90 160h175z" />
    <glyph glyph-name="cacute" unicode="&#x107;" horiz-adv-x="565" 
d="M165 21.5q-62 34.5 -94.5 93t-32.5 130.5t32 130.5t93 93t144 34.5q81 0 141.5 -35.5t87.5 -97.5l-118 -62q-14 30 -41.5 47t-65.5 17q-60 0 -92 -35t-32 -92t32.5 -92t92.5 -35q39 0 66.5 17t41.5 48l118 -63q-27 -62 -87 -97.5t-140 -35.5q-84 0 -146 34.5zM423 668
l-105 -118h-118l68 118h155z" />
    <glyph glyph-name="Cdotaccent" unicode="&#x10a;" horiz-adv-x="762" 
d="M221.5 35.5q-83.5 48.5 -128.5 131.5t-45 183q0 101 44.5 184t127 131t191.5 48q110 0 193 -49t121 -131l-134 -77q-21 49 -68 78t-110 29t-109 -28t-70 -76.5t-24 -108.5t24.5 -108.5t71.5 -76.5t110 -28q64 0 111.5 29t68.5 78l134 -76q-38 -82 -122 -131.5t-194 -49.5
q-109 0 -192.5 48.5zM344 790q-27 27 -27 63t27 63t63 27t63 -27t27 -63t-27 -63t-63 -27t-63 27z" />
    <glyph glyph-name="cdotaccent" unicode="&#x10b;" horiz-adv-x="565" 
d="M165 21.5q-62 34.5 -94.5 93t-32.5 130.5t32 130.5t93 93t144 34.5q81 0 141.5 -35.5t87.5 -97.5l-118 -62q-14 30 -41.5 47t-65.5 17q-60 0 -92 -35t-32 -92t32.5 -92t92.5 -35q39 0 66.5 17t41.5 48l118 -63q-27 -62 -87 -97.5t-140 -35.5q-84 0 -146 34.5zM246.5 565
q-21.5 22 -21.5 50q0 29 21.5 51t50.5 22t51 -22t22 -51t-22 -50.5t-51 -21.5t-50.5 22z" />
    <glyph glyph-name="Ccaron" unicode="&#x10c;" horiz-adv-x="762" 
d="M221.5 35.5q-83.5 48.5 -128.5 131.5t-45 183q0 101 44.5 184t127 131t191.5 48q110 0 193 -49t121 -131l-134 -77q-21 49 -68 78t-110 29t-109 -28t-70 -76.5t-24 -108.5t24.5 -108.5t71.5 -76.5t110 -28q64 0 111.5 29t68.5 78l134 -76q-38 -82 -122 -131.5t-194 -49.5
q-109 0 -192.5 48.5zM597 935l-110 -165h-160l-110 165h123l68 -80l67 80h122z" />
    <glyph glyph-name="ccaron" unicode="&#x10d;" horiz-adv-x="565" 
d="M165 21.5q-62 34.5 -94.5 93t-32.5 130.5t32 130.5t93 93t144 34.5q81 0 141.5 -35.5t87.5 -97.5l-118 -62q-14 30 -41.5 47t-65.5 17q-60 0 -92 -35t-32 -92t32.5 -92t92.5 -35q39 0 66.5 17t41.5 48l118 -63q-27 -62 -87 -97.5t-140 -35.5q-84 0 -146 34.5zM445 668
l-80 -123h-136l-80 123h97l51 -57l51 57h97z" />
    <glyph glyph-name="Dcaron" unicode="&#x10e;" horiz-adv-x="790" 
d="M563.5 654q83.5 -46 131.5 -126t48 -178t-48 -178t-131.5 -126t-185.5 -46h-295v700h295q102 0 185.5 -46zM484 173.5q47 25.5 73 71.5t26 105t-26 105t-73 71.5t-106 25.5h-135v-404h135q59 0 106 25.5zM578 935l-110 -165h-160l-110 165h123l68 -80l67 80h122z" />
    <glyph glyph-name="dcaron" unicode="&#x10f;" horiz-adv-x="782" 
d="M580 700v-700h-147v61q-29 -35 -69.5 -54.5t-91.5 -19.5q-67 0 -120.5 33t-83.5 92t-30 133q0 75 30 133.5t83.5 91.5t120.5 33q101 0 161 -74v271h147zM433 312q-43 63 -117 63q-59 0 -93 -35.5t-34 -94.5q0 -58 34 -94t93 -36q73 0 117 63v134zM782 700l-45 -185h-97
l15 185h127z" />
    <glyph glyph-name="Dcroat" unicode="&#x110;" horiz-adv-x="790" 
d="M563.5 654q83.5 -46 131.5 -126t48 -178t-48 -178t-131.5 -126t-185.5 -46h-295v286h-73v128h73v286h295q102 0 185.5 -46zM484 173.5q47 25.5 73 71.5t26 105t-26 105t-73 71.5t-106 25.5h-135v-138h147v-128h-147v-138h135q59 0 106 25.5z" />
    <glyph glyph-name="dcroat" unicode="&#x111;" horiz-adv-x="645" 
d="M635 537h-60v-537h-147v61q-29 -35 -69.5 -54.5t-91.5 -19.5q-66 0 -118 32.5t-81.5 89t-29.5 127.5t29.5 127.5t81.5 89t118 32.5q101 0 161 -74v126h-118v90h118v73h147v-73h60v-90zM428 294q-43 63 -116 63q-57 0 -90 -34t-33 -87t33 -87t90 -34q72 0 116 63v116z" />
    <glyph glyph-name="Emacron" unicode="&#x112;" horiz-adv-x="700" 
d="M655 148v-148h-570v700h560v-148h-400v-127h255v-148h-255v-129h410zM210 892h320v-117h-320v117z" />
    <glyph glyph-name="emacron" unicode="&#x113;" horiz-adv-x="593" 
d="M251 128.5q38 -19.5 90 -19.5q41 0 75 11t68 34l49 -106q-85 -61 -202 -61q-89 0 -155 32.5t-101 91.5t-35 136q0 72 32 130.5t91.5 92t139.5 33.5q117 0 186 -71.5t69 -197.5q0 -24 -3 -50h-358q16 -36 54 -55.5zM412 288q-14 98 -108 98q-46 0 -75 -25.5t-39 -72.5h222
zM183 639h248v-94h-248v94z" />
    <glyph glyph-name="Edotaccent" unicode="&#x116;" horiz-adv-x="700" 
d="M655 148v-148h-570v700h560v-148h-400v-127h255v-148h-255v-129h410zM307 790q-27 27 -27 63t27 63t63 27t63 -27t27 -63t-27 -63t-63 -27t-63 27z" />
    <glyph glyph-name="edotaccent" unicode="&#x117;" horiz-adv-x="593" 
d="M251 128.5q38 -19.5 90 -19.5q41 0 75 11t68 34l49 -106q-85 -61 -202 -61q-89 0 -155 32.5t-101 91.5t-35 136q0 72 32 130.5t91.5 92t139.5 33.5q117 0 186 -71.5t69 -197.5q0 -24 -3 -50h-358q16 -36 54 -55.5zM412 288q-14 98 -108 98q-46 0 -75 -25.5t-39 -72.5h222
zM256.5 565q-21.5 22 -21.5 50q0 29 21.5 51t50.5 22t51 -22t22 -51t-22 -50.5t-51 -21.5t-50.5 22z" />
    <glyph glyph-name="Eogonek" unicode="&#x118;" horiz-adv-x="700" 
d="M682 -192q-48 -29 -102 -29q-50 0 -77.5 23.5t-27.5 66.5q0 55 55 131h-445v700h560v-148h-400v-127h255v-148h-255v-129h410v-148q-48 -61 -48 -88q0 -17 20 -17q14 0 26 6z" />
    <glyph glyph-name="eogonek" unicode="&#x119;" horiz-adv-x="590" 
d="M251 128.5q38 -19.5 90 -19.5q41 0 75 11t68 34l49 -106q-44 -55 -58.5 -83t-14.5 -46q0 -9 6 -13.5t15 -4.5q11 0 25 7l31 -93q-48 -30 -102 -30q-51 0 -78.5 24t-27.5 65q0 47 43 115q-26 -2 -41 -2q-89 0 -155 32.5t-101 91.5t-35 136q0 72 32 130.5t91.5 92
t139.5 33.5q117 0 186 -71.5t69 -197.5q0 -24 -3 -50h-358q16 -36 54 -55.5zM412 288q-14 98 -108 98q-46 0 -75 -25.5t-39 -72.5h222z" />
    <glyph glyph-name="Ecaron" unicode="&#x11a;" horiz-adv-x="700" 
d="M655 148v-148h-570v700h560v-148h-400v-127h255v-148h-255v-129h410zM560 935l-110 -165h-160l-110 165h123l68 -80l67 80h122z" />
    <glyph glyph-name="ecaron" unicode="&#x11b;" horiz-adv-x="593" 
d="M251 128.5q38 -19.5 90 -19.5q41 0 75 11t68 34l49 -106q-85 -61 -202 -61q-89 0 -155 32.5t-101 91.5t-35 136q0 72 32 130.5t91.5 92t139.5 33.5q117 0 186 -71.5t69 -197.5q0 -24 -3 -50h-358q16 -36 54 -55.5zM412 288q-14 98 -108 98q-46 0 -75 -25.5t-39 -72.5h222
zM455 668l-80 -123h-136l-80 123h97l51 -57l51 57h97z" />
    <glyph glyph-name="Gbreve" unicode="&#x11e;" horiz-adv-x="805" 
d="M748 395v-280q-57 -62 -136 -95t-175 -33q-120 0 -208 48.5t-134.5 131t-46.5 181.5q0 100 46 183.5t131 132.5t196 49q110 0 192.5 -48.5t122.5 -131.5l-137 -71q-22 47 -66 75t-110 28q-65 0 -113.5 -27.5t-74 -76.5t-25.5 -113q0 -97 59.5 -157t171.5 -60q92 0 160 49
v84h-168v131h315zM598 868q-58 -103 -187 -103t-188 103l75 80q21 -35 47.5 -50t65.5 -15t65.5 15t47.5 50z" />
    <glyph glyph-name="gbreve" unicode="&#x11f;" horiz-adv-x="643" 
d="M580 490v-453q0 -116 -73 -183t-210 -67q-120 0 -216 53l42 121q74 -48 162 -48q72 0 110 32t38 92v32q-29 -35 -69.5 -54.5t-91.5 -19.5q-67 0 -120.5 33t-83.5 90.5t-30 130.5t30 131t83.5 90.5t120.5 32.5q101 0 161 -74v61h147zM433 312q-43 63 -117 63
q-58 0 -92.5 -35t-34.5 -91t34.5 -91t92.5 -35q73 0 117 63v126zM462 614q-24 -40 -58.5 -58t-80.5 -18q-94 0 -139 76l56 61q15 -22 34.5 -32.5t48.5 -10.5t48.5 10.5t34.5 32.5z" />
    <glyph glyph-name="Gdotaccent" unicode="&#x120;" horiz-adv-x="805" 
d="M748 395v-280q-57 -62 -136 -95t-175 -33q-120 0 -208 48.5t-134.5 131t-46.5 181.5q0 100 46 183.5t131 132.5t196 49q110 0 192.5 -48.5t122.5 -131.5l-137 -71q-22 47 -66 75t-110 28q-65 0 -113.5 -27.5t-74 -76.5t-25.5 -113q0 -97 59.5 -157t171.5 -60q92 0 160 49
v84h-168v131h315zM348 790q-27 27 -27 63t27 63t63 27t63 -27t27 -63t-27 -63t-63 -27t-63 27z" />
    <glyph glyph-name="gdotaccent" unicode="&#x121;" horiz-adv-x="643" 
d="M580 490v-453q0 -116 -73 -183t-210 -67q-120 0 -216 53l42 121q74 -48 162 -48q72 0 110 32t38 92v32q-29 -35 -69.5 -54.5t-91.5 -19.5q-67 0 -120.5 33t-83.5 90.5t-30 130.5t30 131t83.5 90.5t120.5 32.5q101 0 161 -74v61h147zM433 312q-43 63 -117 63
q-58 0 -92.5 -35t-34.5 -91t34.5 -91t92.5 -35q73 0 117 63v126zM272.5 565q-21.5 22 -21.5 50q0 29 21.5 51t50.5 22t51 -22t22 -51t-22 -50.5t-51 -21.5t-50.5 22z" />
    <glyph glyph-name="Gcommaaccent" unicode="&#x122;" horiz-adv-x="805" 
d="M748 395v-280q-57 -62 -136 -95t-175 -33q-120 0 -208 48.5t-134.5 131t-46.5 181.5q0 100 46 183.5t131 132.5t196 49q110 0 192.5 -48.5t122.5 -131.5l-137 -71q-22 47 -66 75t-110 28q-65 0 -113.5 -27.5t-74 -76.5t-25.5 -113q0 -97 59.5 -157t171.5 -60q92 0 160 49
v84h-168v131h315zM516 -75l-55 -230h-113l18 230h150z" />
    <glyph glyph-name="gcommaaccent" unicode="&#x123;" horiz-adv-x="643" 
d="M580 490v-453q0 -116 -73 -183t-210 -67q-120 0 -216 53l42 121q74 -48 162 -48q72 0 110 32t38 92v32q-29 -35 -69.5 -54.5t-91.5 -19.5q-67 0 -120.5 33t-83.5 90.5t-30 130.5t30 131t83.5 90.5t120.5 32.5q101 0 161 -74v61h147zM433 312q-43 63 -117 63
q-58 0 -92.5 -35t-34.5 -91t34.5 -91t92.5 -35q73 0 117 63v126zM249 550l45 185h97l-15 -185h-127z" />
    <glyph glyph-name="Hbar" unicode="&#x126;" horiz-adv-x="815" 
d="M797 486h-69v-486h-160v236h-320v-236h-160v486h-71v95h71v119h160v-119h320v119h160v-119h69v-95zM568 486h-320v-102h320v102z" />
    <glyph glyph-name="hbar" unicode="&#x127;" horiz-adv-x="613" 
d="M511.5 436q48.5 -52 48.5 -141v-295h-147v282q0 34 -22 54.5t-59 20.5q-64 0 -115 -63v-294h-147v537h-60v90h60v73h147v-73h118v-90h-118v-122q31 37 69.5 55t89.5 18q87 0 135.5 -52z" />
    <glyph glyph-name="Imacron" unicode="&#x12a;" horiz-adv-x="325" 
d="M243 700v-700h-160v700h160zM3 892h320v-117h-320v117z" />
    <glyph glyph-name="imacron" unicode="&#x12b;" horiz-adv-x="272" 
d="M210 0h-147v490h147v-490zM12 639h248v-94h-248v94z" />
    <glyph glyph-name="Iogonek" unicode="&#x12e;" horiz-adv-x="325" 
d="M274 -199q-41 -24 -96 -24q-49 0 -77 23.5t-28 66.5q0 27 11.5 61.5t33.5 71.5h-35v700h160v-700q-38 -57 -38 -90q0 -17 20 -17q14 0 26 6z" />
    <glyph glyph-name="iogonek" unicode="&#x12f;" horiz-adv-x="272" 
d="M72.5 581q-25.5 25 -25.5 62q0 36 26 61t63 25q38 0 64 -25t26 -61q0 -37 -26 -62t-64 -25t-63.5 25zM248 -190q-47 -30 -102 -30q-50 0 -77.5 24t-27.5 65q0 59 45 131h-23v490h147v-490h-1q-37 -58 -37 -86q0 -18 21 -18q11 0 25 7z" />
    <glyph glyph-name="Idotaccent" unicode="&#x130;" horiz-adv-x="325" 
d="M243 700v-700h-160v700h160zM100 790q-27 27 -27 63t27 63t63 27t63 -27t27 -63t-27 -63t-63 -27t-63 27z" />
    <glyph glyph-name="dotlessi" unicode="&#x131;" horiz-adv-x="272" 
d="M210 0h-147v490h147v-490z" />
    <glyph glyph-name="Kcommaaccent" unicode="&#x136;" horiz-adv-x="770" 
d="M748 8v-8h-176l-199 287l-130 -142v-145h-160v700h160v-340l306 340h191v-8l-262 -289zM478 -75l-55 -230h-113l18 230h150z" />
    <glyph glyph-name="kcommaaccent" unicode="&#x137;" horiz-adv-x="590" 
d="M570 7v-7h-157l-119 180l-84 -94v-86h-147v700h147v-427l183 217h174v-6l-177 -197zM374 -70l-45 -185h-97l15 185h127z" />
    <glyph glyph-name="Lacute" unicode="&#x139;" horiz-adv-x="668" 
d="M633 148v-148h-550v700h160v-552h390zM350 930l-130 -160h-135l90 160h175z" />
    <glyph glyph-name="lacute" unicode="&#x13a;" horiz-adv-x="272" 
d="M63 720h147v-720h-147v720zM303 945l-130 -160h-135l90 160h175z" />
    <glyph glyph-name="Lcommaaccent" unicode="&#x13b;" horiz-adv-x="668" 
d="M633 148v-148h-550v700h160v-552h390zM438 -75l-55 -230h-113l18 230h150z" />
    <glyph glyph-name="lcommaaccent" unicode="&#x13c;" horiz-adv-x="272" 
d="M63 720h147v-720h-147v720zM204 -70l-45 -185h-97l15 185h127z" />
    <glyph glyph-name="Lcaron" unicode="&#x13d;" horiz-adv-x="668" 
d="M633 148v-148h-550v700h160v-552h390zM486 700l-55 -230h-113l18 230h150z" />
    <glyph glyph-name="lcaron" unicode="&#x13e;" horiz-adv-x="407" 
d="M63 720h147v-720h-147v720zM407 720l-45 -185h-97l15 185h127z" />
    <glyph glyph-name="Lslash" unicode="&#x141;" horiz-adv-x="668" 
d="M633 148v-148h-550v204l-78 -44v140l78 44v356h160v-266l162 91v-140l-162 -91v-146h390z" />
    <glyph glyph-name="lslash" unicode="&#x142;" horiz-adv-x="313" 
d="M305 338l-74 -36v-302h-147v230l-77 -38v122l77 38v368h147v-296l74 36v-122z" />
    <glyph glyph-name="Nacute" unicode="&#x143;" horiz-adv-x="815" 
d="M733 700v-700h-140l-350 435v-435h-160v700h140l350 -435v435h160zM565 930l-130 -160h-135l90 160h175z" />
    <glyph glyph-name="nacute" unicode="&#x144;" horiz-adv-x="605" 
d="M504 451q49 -52 49 -141v-310h-147v297q0 34 -22 54.5t-59 20.5q-64 0 -115 -63v-309h-147v490h147v-60q31 37 69.5 55t89.5 18q86 0 135 -52zM434 673l-105 -118h-118l68 118h155z" />
    <glyph glyph-name="Ncommaaccent" unicode="&#x145;" horiz-adv-x="815" 
d="M733 700v-700h-140l-350 435v-435h-160v700h140l350 -435v435h160zM503 -75l-55 -230h-113l18 230h150z" />
    <glyph glyph-name="ncommaaccent" unicode="&#x146;" horiz-adv-x="605" 
d="M504 451q49 -52 49 -141v-310h-147v297q0 34 -22 54.5t-59 20.5q-64 0 -115 -63v-309h-147v490h147v-60q31 37 69.5 55t89.5 18q86 0 135 -52zM383 -70l-45 -185h-97l15 185h127z" />
    <glyph glyph-name="Ncaron" unicode="&#x147;" horiz-adv-x="815" 
d="M733 700v-700h-140l-350 435v-435h-160v700h140l350 -435v435h160zM598 935l-110 -165h-160l-110 165h123l68 -80l67 80h122z" />
    <glyph glyph-name="ncaron" unicode="&#x148;" horiz-adv-x="605" 
d="M504 451q49 -52 49 -141v-310h-147v297q0 34 -22 54.5t-59 20.5q-64 0 -115 -63v-309h-147v490h147v-60q31 37 69.5 55t89.5 18q86 0 135 -52zM456 673l-80 -123h-136l-80 123h97l51 -57l51 57h97z" />
    <glyph glyph-name="Eng" unicode="&#x14a;" horiz-adv-x="815" 
d="M733 700v-651q0 -111 -56 -179.5t-160 -85.5l-52 145q93 13 106 98l-328 406v-433h-160v700h140l350 -434v434h160z" />
    <glyph glyph-name="eng" unicode="&#x14b;" horiz-adv-x="605" 
d="M503 450q50 -53 50 -141v-321q0 -85 -42.5 -133.5t-136.5 -70.5l-70 120q53 12 77.5 39t24.5 73v281q0 34 -22 54.5t-59 20.5q-64 0 -115 -64v-308h-147v490h147v-60q59 73 157 73q86 0 136 -53z" />
    <glyph glyph-name="Omacron" unicode="&#x14c;" horiz-adv-x="845" 
d="M226.5 35.5q-85.5 48.5 -132 131.5t-46.5 183t46.5 183t132 131.5t196.5 48.5t196.5 -48.5t132 -131.5t46.5 -183t-46.5 -183t-132 -131.5t-196.5 -48.5t-196.5 48.5zM535.5 165q48.5 28 74.5 76.5t26 108.5q0 61 -26 109.5t-74.5 76t-112.5 27.5q-65 0 -113 -27.5
t-74 -76t-26 -109.5q0 -60 26 -108.5t74.5 -76.5t112.5 -28t112.5 28zM263 892h320v-117h-320v117z" />
    <glyph glyph-name="omacron" unicode="&#x14d;" horiz-adv-x="630" 
d="M168 21.5q-63 34.5 -96.5 93.5t-33.5 130q0 72 33.5 130.5t96 93t147.5 34.5t148 -34.5t96.5 -93t33.5 -130.5q0 -71 -33.5 -130t-97 -93.5t-147.5 -34.5t-147 34.5zM407 152q35 36 35 93q0 58 -34.5 93.5t-92.5 35.5q-57 0 -91.5 -35.5t-34.5 -93.5t34.5 -93.5
t91.5 -35.5t92 36zM191 639h248v-94h-248v94z" />
    <glyph glyph-name="Ohungarumlaut" unicode="&#x150;" horiz-adv-x="845" 
d="M226.5 35.5q-85.5 48.5 -132 131.5t-46.5 183t46.5 183t132 131.5t196.5 48.5t196.5 -48.5t132 -131.5t46.5 -183t-46.5 -183t-132 -131.5t-196.5 -48.5t-196.5 48.5zM535.5 165q48.5 28 74.5 76.5t26 108.5q0 61 -26 109.5t-74.5 76t-112.5 27.5q-65 0 -113 -27.5
t-74 -76t-26 -109.5q0 -60 26 -108.5t74.5 -76.5t112.5 -28t112.5 28zM463 930l-105 -160h-130l80 160h155zM678 930l-115 -160h-130l85 160h160z" />
    <glyph glyph-name="ohungarumlaut" unicode="&#x151;" horiz-adv-x="630" 
d="M168 21.5q-63 34.5 -96.5 93.5t-33.5 130q0 72 33.5 130.5t96 93t147.5 34.5t148 -34.5t96.5 -93t33.5 -130.5q0 -71 -33.5 -130t-97 -93.5t-147.5 -34.5t-147 34.5zM407 152q35 36 35 93q0 58 -34.5 93.5t-92.5 35.5q-57 0 -91.5 -35.5t-34.5 -93.5t34.5 -93.5
t91.5 -35.5t92 36zM346 673l-80 -123h-103l57 123h126zM516 673l-91 -123h-102l63 123h130z" />
    <glyph glyph-name="OE" unicode="&#x152;" horiz-adv-x="1086" 
d="M1046 148v-148h-520q-46 -13 -104 -13q-111 0 -195.5 48.5t-130.5 131.5t-46 183t46 183t130.5 131.5t195.5 48.5q58 0 104 -13h505v-148h-345v-125h205v-152h-205v-127h360zM526 541q-41 22 -98 22q-66 0 -115 -27.5t-75 -76t-26 -109.5q0 -60 26 -108.5t75 -76.5
t115 -28q58 0 98 23v381z" />
    <glyph glyph-name="oe" unicode="&#x153;" horiz-adv-x="1000" 
d="M752 106q41 0 75 11t67 33l49 -102q-85 -61 -201 -61q-75 0 -132 25.5t-93 72.5q-32 -46 -85 -72t-122 -26q-83 0 -144.5 34.5t-94.5 93.5t-33 130q0 72 33 130.5t94.5 93t144.5 34.5q68 0 120.5 -25t85.5 -70q32 45 83 70t115 25q75 0 132 -31.5t88 -91.5t31 -141
q0 -29 -2 -45h-358q29 -88 147 -88zM817 289q-6 50 -33 75t-73 25t-74.5 -26.5t-36.5 -74.5zM406.5 152q34.5 36 34.5 93q0 58 -34.5 93.5t-91.5 35.5t-91.5 -35.5t-34.5 -93.5t34.5 -93.5t91.5 -35.5t91.5 36z" />
    <glyph glyph-name="Racute" unicode="&#x154;" horiz-adv-x="765" 
d="M743 8v-8h-169l-158 237h-173v-237h-160v700h375q69 0 125 -29.5t88 -82t32 -120.5q0 -72 -35.5 -126t-96.5 -82zM243 374h196q46 0 75 25t29 67q0 41 -29 66t-75 25h-196v-183zM525 930l-130 -160h-135l90 160h175z" />
    <glyph glyph-name="racute" unicode="&#x155;" horiz-adv-x="412" 
d="M286.5 478.5q46.5 24.5 105.5 23.5v-152l-16 1q-54 0 -100 -25.5t-66 -66.5v-259h-147v490h147v-88q30 52 76.5 76.5zM351 668l-105 -118h-118l68 118h155z" />
    <glyph glyph-name="Rcommaaccent" unicode="&#x156;" horiz-adv-x="765" 
d="M743 8v-8h-169l-158 237h-173v-237h-160v700h375q69 0 125 -29.5t88 -82t32 -120.5q0 -72 -35.5 -126t-96.5 -82zM243 374h196q46 0 75 25t29 67q0 41 -29 66t-75 25h-196v-183zM483 -75l-55 -230h-113l18 230h150z" />
    <glyph glyph-name="rcommaaccent" unicode="&#x157;" horiz-adv-x="412" 
d="M286.5 478.5q46.5 24.5 105.5 23.5v-152l-16 1q-54 0 -100 -25.5t-66 -66.5v-259h-147v490h147v-88q30 52 76.5 76.5zM202 -70l-45 -185h-97l15 185h127z" />
    <glyph glyph-name="Rcaron" unicode="&#x158;" horiz-adv-x="765" 
d="M743 8v-8h-169l-158 237h-173v-237h-160v700h375q69 0 125 -29.5t88 -82t32 -120.5q0 -72 -35.5 -126t-96.5 -82zM243 374h196q46 0 75 25t29 67q0 41 -29 66t-75 25h-196v-183zM558 935l-110 -165h-160l-110 165h123l68 -80l67 80h122z" />
    <glyph glyph-name="rcaron" unicode="&#x159;" horiz-adv-x="412" 
d="M286.5 478.5q46.5 24.5 105.5 23.5v-152l-16 1q-54 0 -100 -25.5t-66 -66.5v-259h-147v490h147v-88q30 52 76.5 76.5zM373 668l-80 -123h-136l-80 123h97l51 -57l51 57h97z" />
    <glyph glyph-name="Sacute" unicode="&#x15a;" horiz-adv-x="720" 
d="M38 84l72 133q51 -45 115 -66t146 -21q72 0 112 21t40 60q0 19 -14 30t-50.5 19t-116.5 19q-98 15 -155.5 31t-96.5 56t-39 114q0 71 38 123.5t106 81t157 28.5q115 0 192.5 -44t111.5 -116l-130 -68q-17 42 -62 64.5t-115 22.5q-72 0 -105 -21.5t-33 -57.5q0 -21 14 -33
t49 -20.5t105 -17.5q101 -14 161 -30.5t101 -57.5t41 -116q0 -111 -88.5 -171t-232.5 -60q-191 0 -323 97zM511 930l-130 -160h-135l90 160h175z" />
    <glyph glyph-name="sacute" unicode="&#x15b;" horiz-adv-x="553" 
d="M37 53l54 114q77 -57 185 -57q93 0 93 36q0 15 -17 21t-59 10l-40 5q-101 13 -152 47t-51 106q0 78 60 123t167 45q88 0 143.5 -33t83.5 -88l-122 -53q-10 28 -37 41t-64 13q-39 0 -61 -11t-22 -27q0 -15 21.5 -21.5t79.5 -14.5q76 -10 122 -24.5t72.5 -45t26.5 -83.5
q0 -84 -65.5 -126.5t-181.5 -42.5q-140 0 -236 66zM405 668l-105 -118h-118l68 118h155z" />
    <glyph glyph-name="Scedilla" unicode="&#x15e;" horiz-adv-x="720" 
d="M613.5 62.5q-68.5 -58.5 -184.5 -71.5l-15 -38q40 -4 67.5 -26t27.5 -61q0 -48 -43.5 -73.5t-110.5 -25.5q-38 0 -68 6t-66 22l34 88q22 -10 41.5 -14.5t45.5 -4.5q42 0 42 23q0 30 -92 26l30 75q-167 9 -284 96l72 133q51 -45 115 -66t146 -21q72 0 112 21t40 60
q0 19 -14 30t-50.5 19t-116.5 19q-98 15 -155.5 31t-96.5 56t-39 114q0 71 38 123.5t106 81t157 28.5q115 0 192.5 -44t111.5 -116l-130 -68q-17 42 -62 64.5t-115 22.5q-72 0 -105 -21.5t-33 -57.5q0 -21 14 -33t49 -20.5t105 -17.5q101 -14 161 -30.5t101 -57.5t41 -116
q0 -97 -68.5 -155.5z" />
    <glyph glyph-name="scedilla" unicode="&#x15f;" horiz-adv-x="553" 
d="M471 42.5q-49 -41.5 -138 -52.5l-12 -29q32 -3 54 -21t22 -49q0 -39 -35 -59t-88 -20q-31 0 -55 5t-52 17l27 71q35 -15 69 -15q33 0 33 18q0 24 -73 21l23 59q-120 5 -209 65l54 114q77 -57 185 -57q93 0 93 36q0 15 -17 21t-59 10l-40 5q-101 13 -152 47t-51 106
q0 78 60 123t167 45q88 0 143.5 -33t83.5 -88l-122 -53q-10 28 -37 41t-64 13q-39 0 -61 -11t-22 -27q0 -15 21.5 -21.5t79.5 -14.5q76 -10 122 -24.5t72.5 -45t26.5 -83.5q0 -72 -49 -113.5z" />
    <glyph glyph-name="Scaron" unicode="&#x160;" horiz-adv-x="720" 
d="M38 84l72 133q51 -45 115 -66t146 -21q72 0 112 21t40 60q0 19 -14 30t-50.5 19t-116.5 19q-98 15 -155.5 31t-96.5 56t-39 114q0 71 38 123.5t106 81t157 28.5q115 0 192.5 -44t111.5 -116l-130 -68q-17 42 -62 64.5t-115 22.5q-72 0 -105 -21.5t-33 -57.5q0 -21 14 -33
t49 -20.5t105 -17.5q101 -14 161 -30.5t101 -57.5t41 -116q0 -111 -88.5 -171t-232.5 -60q-191 0 -323 97zM544 935l-110 -165h-160l-110 165h123l68 -80l67 80h122z" />
    <glyph glyph-name="scaron" unicode="&#x161;" horiz-adv-x="553" 
d="M37 53l54 114q77 -57 185 -57q93 0 93 36q0 15 -17 21t-59 10l-40 5q-101 13 -152 47t-51 106q0 78 60 123t167 45q88 0 143.5 -33t83.5 -88l-122 -53q-10 28 -37 41t-64 13q-39 0 -61 -11t-22 -27q0 -15 21.5 -21.5t79.5 -14.5q76 -10 122 -24.5t72.5 -45t26.5 -83.5
q0 -84 -65.5 -126.5t-181.5 -42.5q-140 0 -236 66zM427 668l-80 -123h-136l-80 123h97l51 -57l51 57h97z" />
    <glyph glyph-name="uni0162" unicode="&#x162;" horiz-adv-x="685" 
d="M663 552h-240v-552h-160v552h-240v148h640v-148zM423 -75l-55 -230h-113l18 230h150z" />
    <glyph glyph-name="uni0163" unicode="&#x163;" horiz-adv-x="450" 
d="M252 361v-184q0 -60 69 -60q43 0 86 21v-127q-54 -24 -119 -24q-83 0 -133 43t-50 127v204h-82v129h82v150h147v-150h161v-129h-161zM341 -70l-45 -185h-97l15 185h127z" />
    <glyph glyph-name="Tcaron" unicode="&#x164;" horiz-adv-x="685" 
d="M663 552h-240v-552h-160v552h-240v148h640v-148zM533 935l-110 -165h-160l-110 165h123l68 -80l67 80h122z" />
    <glyph glyph-name="tcaron" unicode="&#x165;" horiz-adv-x="475" 
d="M252 361v-184q0 -60 69 -60q43 0 86 21v-127q-54 -24 -119 -24q-83 0 -133 43t-50 127v204h-82v129h82v150h147v-150h161v-129h-161zM450 732l-45 -185h-97l15 185h127z" />
    <glyph glyph-name="Tbar" unicode="&#x166;" horiz-adv-x="685" 
d="M423 552v-168h110v-128h-110v-256h-160v256h-110v128h110v168h-240v148h640v-148h-240z" />
    <glyph glyph-name="tbar" unicode="&#x167;" horiz-adv-x="450" 
d="M252 376v-80h126v-90h-126v-29q0 -60 69 -60q43 0 86 21v-127q-54 -24 -119 -24q-83 0 -133 43t-50 127v49h-55v90h55v80h-82v114h82v150h147v-150h161v-114h-161z" />
    <glyph glyph-name="Umacron" unicode="&#x16a;" horiz-adv-x="775" 
d="M221.5 19.5q-72.5 32.5 -113 98.5t-40.5 162v420h160v-420q0 -71 43 -107t118 -36q74 0 116.5 36t42.5 107v420h160v-420q0 -96 -41 -161.5t-113 -98.5t-166 -33t-166.5 32.5zM228 892h320v-117h-320v117z" />
    <glyph glyph-name="umacron" unicode="&#x16b;" horiz-adv-x="605" 
d="M542 490v-490h-147v60q-31 -37 -69.5 -55t-89.5 -18q-86 0 -135 52t-49 141v310h147v-297q0 -34 22 -54.5t59 -20.5q64 0 115 63v309h147zM176 639h248v-94h-248v94z" />
    <glyph glyph-name="Uring" unicode="&#x16e;" horiz-adv-x="775" 
d="M221.5 19.5q-72.5 32.5 -113 98.5t-40.5 162v420h160v-420q0 -71 43 -107t118 -36q74 0 116.5 36t42.5 107v420h160v-420q0 -96 -41 -161.5t-113 -98.5t-166 -33t-166.5 32.5zM295.5 735q-37.5 36 -37.5 88t37.5 88t92.5 36t92.5 -35.5t37.5 -88.5t-37.5 -88.5
t-92.5 -35.5t-92.5 36zM420.5 791q12.5 12 12.5 32t-12.5 32.5t-32.5 12.5t-32 -12.5t-12 -32.5t12 -32t32 -12t32.5 12z" />
    <glyph glyph-name="uring" unicode="&#x16f;" horiz-adv-x="605" 
d="M542 490v-490h-147v60q-31 -37 -69.5 -55t-89.5 -18q-86 0 -135 52t-49 141v310h147v-297q0 -34 22 -54.5t59 -20.5q64 0 115 63v309h147zM211 545.5q-35 33.5 -35 83.5q0 49 35 82.5t87 33.5t87 -33.5t35 -82.5q0 -50 -35 -83.5t-87 -33.5t-87 33.5zM326 601.5
q11 10.5 11 27.5t-11 27.5t-28 10.5t-27.5 -10.5t-10.5 -27.5t10.5 -27.5t27.5 -10.5t28 10.5z" />
    <glyph glyph-name="Uhungarumlaut" unicode="&#x170;" horiz-adv-x="775" 
d="M221.5 19.5q-72.5 32.5 -113 98.5t-40.5 162v420h160v-420q0 -71 43 -107t118 -36q74 0 116.5 36t42.5 107v420h160v-420q0 -96 -41 -161.5t-113 -98.5t-166 -33t-166.5 32.5zM428 930l-105 -160h-130l80 160h155zM643 930l-115 -160h-130l85 160h160z" />
    <glyph glyph-name="uhungarumlaut" unicode="&#x171;" horiz-adv-x="605" 
d="M542 490v-490h-147v60q-31 -37 -69.5 -55t-89.5 -18q-86 0 -135 52t-49 141v310h147v-297q0 -34 22 -54.5t59 -20.5q64 0 115 63v309h147zM331 673l-80 -123h-103l57 123h126zM501 673l-91 -123h-102l63 123h130z" />
    <glyph glyph-name="Uogonek" unicode="&#x172;" horiz-adv-x="775" 
d="M708 700v-420q0 -133 -79 -210q-106 -120 -106 -160q0 -17 20 -17q15 0 27 6l30 -93q-49 -29 -103 -29q-50 0 -77.5 23.5t-27.5 66.5q0 25 14.5 57t45.5 67q-28 -4 -64 -4q-94 0 -166.5 32.5t-113 98.5t-40.5 162v420h160v-420q0 -71 43 -107t118 -36q74 0 116.5 36
t42.5 107v420h160z" />
    <glyph glyph-name="uogonek" unicode="&#x173;" horiz-adv-x="605" 
d="M572 -190q-48 -30 -102 -30q-51 0 -78.5 24t-27.5 65q0 28 13 62t39 69h-21v60q-31 -37 -69.5 -55t-89.5 -18q-86 0 -135 52t-49 141v310h147v-297q0 -34 22 -54.5t59 -20.5q64 0 115 63v309h147v-490h1q-48 -56 -48 -86q0 -9 6 -13.5t15 -4.5q11 0 25 7z" />
    <glyph glyph-name="Wcircumflex" unicode="&#x174;" horiz-adv-x="1060" 
d="M20 691v9h167l134 -461l151 441h117l150 -441l134 461h167v-9l-224 -691h-139l-147 430l-146 -430h-140zM598 770l-67 80l-68 -80h-123l110 165h160l110 -165h-122z" />
    <glyph glyph-name="wcircumflex" unicode="&#x175;" horiz-adv-x="799" 
d="M15 484v6h151l82 -296l103 282h97l103 -282l82 296h151v-6l-161 -484h-121l-102 263l-103 -263h-121zM451 545l-51 57l-51 -57h-97l80 123h136l80 -123h-97z" />
    <glyph glyph-name="Ycircumflex" unicode="&#x176;" horiz-adv-x="735" 
d="M718 691l-270 -412v-279h-160v279l-270 412v9h175l175 -279l175 279h175v-9zM436 770l-67 80l-68 -80h-123l110 165h160l110 -165h-122z" />
    <glyph glyph-name="ycircumflex" unicode="&#x177;" horiz-adv-x="595" 
d="M585 490v-6l-284 -684h-159v6l95 201l-222 477v6h159l134 -317l118 317h159zM351 545l-51 57l-51 -57h-97l80 123h136l80 -123h-97z" />
    <glyph glyph-name="Ydieresis" unicode="&#x178;" horiz-adv-x="735" 
d="M718 691l-270 -412v-279h-160v279l-270 412v9h175l175 -279l175 279h175v-9zM209 789q-24 24 -24 56t24 56t56 24t56 -24t24 -56t-24 -56t-56 -24t-56 24zM414 789q-24 24 -24 56t24 56t56 24t56 -24t24 -56q0 -31 -24 -55.5t-56 -24.5t-56 24z" />
    <glyph glyph-name="Zacute" unicode="&#x179;" horiz-adv-x="660" 
d="M618 148v-148h-575v119l349 433h-339v148h555v-123l-346 -429h356zM485 930l-130 -160h-135l90 160h175z" />
    <glyph glyph-name="zacute" unicode="&#x17a;" horiz-adv-x="529" 
d="M486 129v-129h-443v98l230 263h-223v129h429v-99l-229 -262h236zM387 668l-105 -118h-118l68 118h155z" />
    <glyph glyph-name="Zdotaccent" unicode="&#x17b;" horiz-adv-x="660" 
d="M618 148v-148h-575v119l349 433h-339v148h555v-123l-346 -429h356zM265 790q-27 27 -27 63t27 63t63 27t63 -27t27 -63t-27 -63t-63 -27t-63 27z" />
    <glyph glyph-name="zdotaccent" unicode="&#x17c;" horiz-adv-x="529" 
d="M486 129v-129h-443v98l230 263h-223v129h429v-99l-229 -262h236zM210.5 565q-21.5 22 -21.5 50q0 29 21.5 51t50.5 22t51 -22t22 -51t-22 -50.5t-51 -21.5t-50.5 22z" />
    <glyph glyph-name="Zcaron" unicode="&#x17d;" horiz-adv-x="660" 
d="M618 148v-148h-575v119l349 433h-339v148h555v-123l-346 -429h356zM518 935l-110 -165h-160l-110 165h123l68 -80l67 80h122z" />
    <glyph glyph-name="zcaron" unicode="&#x17e;" horiz-adv-x="529" 
d="M486 129v-129h-443v98l230 263h-223v129h429v-99l-229 -262h236zM409 668l-80 -123h-136l-80 123h97l51 -57l51 57h97z" />
    <glyph glyph-name="Scommaaccent" unicode="&#x218;" horiz-adv-x="720" 
d="M38 84l72 133q51 -45 115 -66t146 -21q72 0 112 21t40 60q0 19 -14 30t-50.5 19t-116.5 19q-98 15 -155.5 31t-96.5 56t-39 114q0 71 38 123.5t106 81t157 28.5q115 0 192.5 -44t111.5 -116l-130 -68q-17 42 -62 64.5t-115 22.5q-72 0 -105 -21.5t-33 -57.5q0 -21 14 -33
t49 -20.5t105 -17.5q101 -14 161 -30.5t101 -57.5t41 -116q0 -111 -88.5 -171t-232.5 -60q-191 0 -323 97zM454 -75l-55 -230h-113l18 230h150z" />
    <glyph glyph-name="scommaaccent" unicode="&#x219;" horiz-adv-x="553" 
d="M37 53l54 114q77 -57 185 -57q93 0 93 36q0 15 -17 21t-59 10l-40 5q-101 13 -152 47t-51 106q0 78 60 123t167 45q88 0 143.5 -33t83.5 -88l-122 -53q-10 28 -37 41t-64 13q-39 0 -61 -11t-22 -27q0 -15 21.5 -21.5t79.5 -14.5q76 -10 122 -24.5t72.5 -45t26.5 -83.5
q0 -84 -65.5 -126.5t-181.5 -42.5q-140 0 -236 66zM352 -70l-45 -185h-97l15 185h127z" />
    <glyph glyph-name="uni021A" unicode="&#x21a;" horiz-adv-x="685" 
d="M663 552h-240v-552h-160v552h-240v148h640v-148zM423 -75l-55 -230h-113l18 230h150z" />
    <glyph glyph-name="uni021B" unicode="&#x21b;" horiz-adv-x="450" 
d="M252 361v-184q0 -60 69 -60q43 0 86 21v-127q-54 -24 -119 -24q-83 0 -133 43t-50 127v204h-82v129h82v150h147v-150h161v-129h-161zM341 -70l-45 -185h-97l15 185h127z" />
    <glyph glyph-name="gravecomb" unicode="&#x300;" 
d="M-20 550h-118l-106 118h155z" />
    <glyph glyph-name="acutecomb" unicode="&#x301;" 
d="M-26 668l-105 -118h-118l68 118h155z" />
    <glyph glyph-name="uni0302" unicode="&#x302;" 
d="M-117 545l-51 57l-51 -57h-97l80 123h136l80 -123h-97z" />
    <glyph glyph-name="tildecomb" unicode="&#x303;" 
d="M-170 555q-12 6 -24 11t-22 5q-23 0 -36 -37l-62 50q15 42 36 64.5t52 22.5q25 0 61 -20q3 -1 18.5 -8.5t28.5 -7.5q24 0 37 37l61 -48q-15 -43 -35.5 -66t-51.5 -23q-25 0 -63 20z" />
    <glyph glyph-name="uni0304" unicode="&#x304;" 
d="M-268 639h248v-94h-248v94z" />
    <glyph glyph-name="uni0306" unicode="&#x306;" 
d="M-20 614q-24 -40 -58.5 -58t-80.5 -18q-94 0 -139 76l56 61q15 -22 34.5 -32.5t48.5 -10.5t48.5 10.5t34.5 32.5z" />
    <glyph glyph-name="uni0307" unicode="&#x307;" 
d="M-150.5 565q-21.5 22 -21.5 50q0 29 21.5 51t50.5 22t51 -22t22 -51t-22 -50.5t-51 -21.5t-50.5 22z" />
    <glyph glyph-name="uni0308" unicode="&#x308;" 
d="M-293 551.5q-19 18.5 -19 43.5t19 44t44 19t43.5 -19t18.5 -44t-18.5 -43.5t-43.5 -18.5t-44 18.5zM-126 551.5q-19 18.5 -19 43.5q0 26 18.5 44.5t44.5 18.5q25 0 43.5 -19t18.5 -44q0 -24 -19 -43t-43 -19q-25 0 -44 18.5z" />
    <glyph glyph-name="uni030A" unicode="&#x30a;" 
d="M-229 472.5q-35 33.5 -35 83.5q0 49 35 82.5t87 33.5t87 -33.5t35 -82.5q0 -50 -35 -83.5t-87 -33.5t-87 33.5zM-114 528.5q11 10.5 11 27.5t-11 27.5t-28 10.5t-27.5 -10.5t-10.5 -27.5t10.5 -27.5t27.5 -10.5t28 10.5z" />
    <glyph glyph-name="uni030B" unicode="&#x30b;" 
d="M-190 673l-80 -123h-103l57 123h126zM-20 673l-91 -123h-102l63 123h130z" />
    <glyph glyph-name="uni030C" unicode="&#x30c;" 
d="M-20 668l-80 -123h-136l-80 123h97l51 -57l51 57h97z" />
    <glyph glyph-name="uni0312" unicode="&#x312;" 
d="M-162 550l45 185h97l-15 -185h-127z" />
    <glyph glyph-name="uni0326" unicode="&#x326;" 
d="M-20 -70l-45 -185h-97l15 185h127z" />
    <glyph glyph-name="uni0327" unicode="&#x327;" 
d="M-198 -183q-24 5 -52 17l27 71q34 -15 69 -15q33 0 33 18q0 24 -73 21l28 71h86l-16 -39q32 -3 54 -21t22 -49q0 -39 -35 -59t-88 -20q-31 0 -55 5z" />
    <glyph glyph-name="uni0328" unicode="&#x328;" 
d="M-174.5 -166.5q-24.5 20.5 -24.5 55.5q0 26 14 58.5t41 64.5l99 -12q-40 -50 -40 -71q0 -16 17 -16q10 0 22 6l26 -81q-40 -25 -87 -25q-43 0 -67.5 20.5z" />
    <glyph glyph-name="uni0335" unicode="&#x335;" 
d="M-325 284h305v-90h-305v90z" />
    <glyph glyph-name="uni0336" unicode="&#x336;" 
d="M-20 398v-75h-595v75h595z" />
    <glyph glyph-name="uni0337" unicode="&#x337;" 
d="M-318 245l298 146v-122l-298 -146v122z" />
    <glyph glyph-name="uni0338" unicode="&#x338;" 
d="M-454 0l372 532l62 -42l-373 -532z" />
    <glyph glyph-name="Wgrave" unicode="&#x1e80;" horiz-adv-x="1060" 
d="M20 691v9h167l134 -461l151 441h117l150 -441l134 461h167v-9l-224 -691h-139l-147 430l-146 -430h-140zM637 770h-135l-130 160h175z" />
    <glyph glyph-name="wgrave" unicode="&#x1e81;" horiz-adv-x="799" 
d="M15 484v6h151l82 -296l103 282h97l103 -282l82 296h151v-6l-161 -484h-121l-102 263l-103 -263h-121zM492 550h-118l-106 118h155z" />
    <glyph glyph-name="Wacute" unicode="&#x1e82;" horiz-adv-x="1060" 
d="M20 691v9h167l134 -461l151 441h117l150 -441l134 461h167v-9l-224 -691h-139l-147 430l-146 -430h-140zM687 930l-130 -160h-135l90 160h175z" />
    <glyph glyph-name="wacute" unicode="&#x1e83;" horiz-adv-x="799" 
d="M15 484v6h151l82 -296l103 282h97l103 -282l82 296h151v-6l-161 -484h-121l-102 263l-103 -263h-121zM526 668l-105 -118h-118l68 118h155z" />
    <glyph glyph-name="Wdieresis" unicode="&#x1e84;" horiz-adv-x="1060" 
d="M20 691v9h167l134 -461l151 441h117l150 -441l134 461h167v-9l-224 -691h-139l-147 430l-146 -430h-140zM371 789q-24 24 -24 56t24 56t56 24t56 -24t24 -56t-24 -56t-56 -24t-56 24zM576 789q-24 24 -24 56t24 56t56 24t56 -24t24 -56q0 -31 -24 -55.5t-56 -24.5t-56 24
z" />
    <glyph glyph-name="wdieresis" unicode="&#x1e85;" horiz-adv-x="799" 
d="M15 484v6h151l82 -296l103 282h97l103 -282l82 296h151v-6l-161 -484h-121l-102 263l-103 -263h-121zM273 551.5q-19 18.5 -19 43.5t19 44t44 19t43.5 -19t18.5 -44t-18.5 -43.5t-43.5 -18.5t-44 18.5zM440 551.5q-19 18.5 -19 43.5q0 26 18.5 44.5t44.5 18.5
q25 0 43.5 -19t18.5 -44q0 -24 -19 -43t-43 -19q-25 0 -44 18.5z" />
    <glyph glyph-name="Ygrave" unicode="&#x1ef2;" horiz-adv-x="735" 
d="M718 691l-270 -412v-279h-160v279l-270 412v9h175l175 -279l175 279h175v-9zM475 770h-135l-130 160h175z" />
    <glyph glyph-name="ygrave" unicode="&#x1ef3;" horiz-adv-x="595" 
d="M585 490v-6l-284 -684h-159v6l95 201l-222 477v6h159l134 -317l118 317h159zM392 550h-118l-106 118h155z" />
    <glyph glyph-name="endash" unicode="&#x2013;" horiz-adv-x="720" 
d="M630 315v-140h-540v140h540z" />
    <glyph glyph-name="emdash" unicode="&#x2014;" horiz-adv-x="820" 
d="M730 315v-140h-640v140h640z" />
    <glyph glyph-name="quoteleft" unicode="&#x2018;" horiz-adv-x="310" 
d="M249 672q-46 -30 -68 -61t-23 -70q43 0 71 -27t28 -67q0 -39 -27.5 -66t-68.5 -27q-51 0 -81 38.5t-30 95.5q0 68 44.5 132.5t121.5 98.5z" />
    <glyph glyph-name="quoteright" unicode="&#x2019;" horiz-adv-x="320" 
d="M71 395q46 30 68 61t23 70q-43 0 -71 27t-28 67q0 39 27.5 66t68.5 27q51 0 81 -38.5t30 -95.5q0 -68 -44.5 -132.5t-121.5 -98.5z" />
    <glyph glyph-name="quotesinglbase" unicode="&#x201a;" horiz-adv-x="310" 
d="M61 -141q46 30 68 61t23 70q-43 0 -71 27t-28 67q0 39 27.5 66t68.5 27q51 0 81 -38.5t30 -95.5q0 -68 -44.5 -132.5t-121.5 -98.5z" />
    <glyph glyph-name="quotedblleft" unicode="&#x201c;" horiz-adv-x="550" 
d="M249 672q-46 -30 -68 -61t-23 -70q43 0 71 -27t28 -67q0 -39 -27.5 -66t-68.5 -27q-51 0 -81 38.5t-30 95.5q0 68 44.5 132.5t121.5 98.5zM489 672q-46 -30 -68 -61t-23 -70q43 0 71 -27t28 -67q0 -39 -27.5 -66t-68.5 -27q-51 0 -81 38.5t-30 95.5q0 68 44.5 132.5
t121.5 98.5z" />
    <glyph glyph-name="quotedblright" unicode="&#x201d;" horiz-adv-x="550" 
d="M61 395q46 30 68 61t23 70q-43 0 -71 27t-28 67q0 39 27.5 66t68.5 27q51 0 81 -38.5t30 -95.5q0 -68 -44.5 -132.5t-121.5 -98.5zM301 395q46 30 68 61t23 70q-43 0 -71 27t-28 67q0 39 27.5 66t68.5 27q51 0 81 -38.5t30 -95.5q0 -68 -44.5 -132.5t-121.5 -98.5z" />
    <glyph glyph-name="quotedblbase" unicode="&#x201e;" horiz-adv-x="550" 
d="M61 -141q46 30 68 61t23 70q-43 0 -71 27t-28 67q0 39 27.5 66t68.5 27q51 0 81 -38.5t30 -95.5q0 -68 -44.5 -132.5t-121.5 -98.5zM301 -141q46 30 68 61t23 70q-43 0 -71 27t-28 67q0 39 27.5 66t68.5 27q51 0 81 -38.5t30 -95.5q0 -68 -44.5 -132.5t-121.5 -98.5z" />
    <glyph glyph-name="bullet" unicode="&#x2022;" horiz-adv-x="432" 
d="M122.5 257.5q-38.5 37.5 -38.5 92.5t39 93t96 38q56 0 94.5 -38t38.5 -93t-38.5 -92.5t-94.5 -37.5q-58 0 -96.5 37.5z" />
    <glyph glyph-name="ellipsis" unicode="&#x2026;" horiz-adv-x="845" 
d="M78 14.5q-28 27.5 -28 67.5t28 67.5t70 27.5q41 0 69 -27.5t28 -67.5t-28 -67.5t-69 -27.5q-42 0 -70 27.5zM353 14.5q-28 27.5 -28 67.5t28 67.5t70 27.5q41 0 69 -27.5t28 -67.5t-28 -67.5t-69 -27.5q-42 0 -70 27.5zM628 14.5q-28 27.5 -28 67.5t28 67.5t70 27.5
q41 0 69 -27.5t28 -67.5t-28 -67.5t-69 -27.5q-42 0 -70 27.5z" />
    <glyph glyph-name="guilsinglleft" unicode="&#x2039;" horiz-adv-x="399" 
d="M50 241v8l210 209l89 -89l-124 -124l124 -124l-89 -89z" />
    <glyph glyph-name="guilsinglright" unicode="&#x203a;" horiz-adv-x="399" 
d="M50 121l124 124l-124 124l89 89l210 -209v-8l-210 -209z" />
    <glyph glyph-name="Euro" unicode="&#x20ac;" horiz-adv-x="779" 
d="M561.5 160q43.5 28 61.5 76l126 -68q-34 -83 -113.5 -132t-186.5 -49q-85 0 -155 32t-117.5 89.5t-68.5 132.5h-83v83h70q-1 9 -1 26t1 26h-70v83h83q31 115 122 184.5t219 69.5q107 0 186.5 -49t113.5 -131l-126 -69q-18 48 -61.5 76t-107.5 28t-108.5 -28.5
t-67.5 -80.5h257v-83h-276q-1 -8 -1 -26t1 -26h276v-83h-256q22 -52 66.5 -80.5t108.5 -28.5t107.5 28z" />
    <glyph glyph-name="uni2116" unicode="&#x2116;" horiz-adv-x="1229" 
d="M1100 690q42 -23 66.5 -63.5t24.5 -90.5t-24.5 -90.5t-66.5 -64t-94 -23.5t-94.5 23.5t-67 64t-24.5 90.5t24.5 90.5t67 63.5t94.5 23t94 -23zM573 700h160v-700h-140l-350 439v-439h-160v700h140l350 -439v439zM1049 493.5q17 16.5 17 42.5t-17 42t-43 16t-43 -16
t-17 -42t17 -42.5t43 -16.5t43 16.5zM1074.5 271.5q26.5 -25.5 26.5 -66.5t-26.5 -66.5t-68.5 -25.5t-68.5 25.5t-26.5 66.5t26.5 66.5t68.5 25.5t68.5 -25.5z" />
    <glyph glyph-name="trademark" unicode="&#x2122;" horiz-adv-x="626" 
d="M267 622h-69v-167h-80v167h-68v78h217v-78zM576 700v-245h-80v120l-57 -72h-4l-57 72v-120h-80v245h61l78 -102l79 102h60z" />
    <glyph glyph-name="minus" unicode="&#x2212;" horiz-adv-x="660" 
d="M65 421h530v-141h-530v141z" />
    <glyph glyph-name="approxequal" unicode="&#x2248;" horiz-adv-x="713" 
d="M409.5 367q-30.5 12 -67.5 34q-39 20 -60.5 29t-45.5 9q-29 0 -45.5 -16t-37.5 -51l-83 56q29 69 67.5 111.5t102.5 42.5q33 0 61.5 -11t69.5 -34q36 -20 59 -29.5t48 -9.5q21 0 35.5 9t23.5 21t24 38l82 -62q-27 -68 -66 -108.5t-102 -40.5q-35 0 -65.5 12zM409.5 132
q-30.5 12 -67.5 34q-39 20 -60.5 29t-45.5 9q-29 0 -45.5 -16t-37.5 -51l-83 56q29 69 67.5 111.5t102.5 42.5q33 0 61.5 -11t69.5 -34q36 -20 59 -29.5t48 -9.5q21 0 35.5 9t23.5 21t24 38l82 -62q-27 -68 -66 -108.5t-102 -40.5q-35 0 -65.5 12z" />
    <glyph glyph-name="notequal" unicode="&#x2260;" horiz-adv-x="690" 
d="M417 397l-57 -94h265v-141h-351l-91 -150l-64 38l68 112h-112v141h198l58 94h-256v141h342l91 150l63 -38l-68 -112h122v-141h-208z" />
    <glyph glyph-name="lessequal" unicode="&#x2264;" horiz-adv-x="690" 
d="M605 544l-432 -93l432 -93v-146l-550 149v180l550 149v-146zM55 171h550v-141h-550v141z" />
    <glyph glyph-name="greaterequal" unicode="&#x2265;" horiz-adv-x="690" 
d="M635 541v-180l-550 -149v146l432 93l-432 93v146zM85 171h550v-141h-550v141z" />
    <glyph glyph-name="i.loclTRK" horiz-adv-x="272" 
d="M210 0h-147v490h147v-490zM85.5 565q-21.5 22 -21.5 50q0 29 21.5 51t50.5 22t51 -22t22 -51t-22 -50.5t-51 -21.5t-50.5 22z" />
    <glyph glyph-name="a.ss01" horiz-adv-x="579" 
d="M466.5 447.5q60.5 -55.5 60.5 -152.5v-295h-147v54q-30 -33 -74.5 -50t-95.5 -17q-80 0 -128.5 39t-48.5 110q0 81 62.5 115.5t163.5 39.5l121 7v6q0 37 -21.5 56.5t-74.5 19.5q-88 0 -117 -59l-115 50q23 58 80.5 95t157.5 37q116 0 176.5 -55.5zM380 136v68l-99 -7
q-48 -3 -73.5 -15t-25.5 -42q0 -50 77 -50q72 0 121 46z" />
    <glyph glyph-name="aacute.ss01" horiz-adv-x="579" 
d="M466.5 447.5q60.5 -55.5 60.5 -152.5v-295h-147v54q-30 -33 -74.5 -50t-95.5 -17q-80 0 -128.5 39t-48.5 110q0 81 62.5 115.5t163.5 39.5l121 7v6q0 37 -21.5 56.5t-74.5 19.5q-88 0 -117 -59l-115 50q23 58 80.5 95t157.5 37q116 0 176.5 -55.5zM380 136v68l-99 -7
q-48 -3 -73.5 -15t-25.5 -42q0 -50 77 -50q72 0 121 46zM417 678l-105 -118h-118l68 118h155z" />
    <glyph glyph-name="abreve.ss01" horiz-adv-x="579" 
d="M466.5 447.5q60.5 -55.5 60.5 -152.5v-295h-147v54q-30 -33 -74.5 -50t-95.5 -17q-80 0 -128.5 39t-48.5 110q0 81 62.5 115.5t163.5 39.5l121 7v6q0 37 -21.5 56.5t-74.5 19.5q-88 0 -117 -59l-115 50q23 58 80.5 95t157.5 37q116 0 176.5 -55.5zM380 136v68l-99 -7
q-48 -3 -73.5 -15t-25.5 -42q0 -50 77 -50q72 0 121 46zM430 624q-24 -40 -58.5 -58t-80.5 -18q-94 0 -139 76l56 61q15 -22 34.5 -32.5t48.5 -10.5t48.5 10.5t34.5 32.5z" />
    <glyph glyph-name="acircumflex.ss01" horiz-adv-x="579" 
d="M466.5 447.5q60.5 -55.5 60.5 -152.5v-295h-147v54q-30 -33 -74.5 -50t-95.5 -17q-80 0 -128.5 39t-48.5 110q0 81 62.5 115.5t163.5 39.5l121 7v6q0 37 -21.5 56.5t-74.5 19.5q-88 0 -117 -59l-115 50q23 58 80.5 95t157.5 37q116 0 176.5 -55.5zM380 136v68l-99 -7
q-48 -3 -73.5 -15t-25.5 -42q0 -50 77 -50q72 0 121 46zM342 555l-51 57l-51 -57h-97l80 123h136l80 -123h-97z" />
    <glyph glyph-name="adieresis.ss01" horiz-adv-x="579" 
d="M466.5 447.5q60.5 -55.5 60.5 -152.5v-295h-147v54q-30 -33 -74.5 -50t-95.5 -17q-80 0 -128.5 39t-48.5 110q0 81 62.5 115.5t163.5 39.5l121 7v6q0 37 -21.5 56.5t-74.5 19.5q-88 0 -117 -59l-115 50q23 58 80.5 95t157.5 37q116 0 176.5 -55.5zM380 136v68l-99 -7
q-48 -3 -73.5 -15t-25.5 -42q0 -50 77 -50q72 0 121 46zM164 561.5q-19 18.5 -19 43.5t19 44t44 19t43.5 -19t18.5 -44t-18.5 -43.5t-43.5 -18.5t-44 18.5zM331 561.5q-19 18.5 -19 43.5q0 26 18.5 44.5t44.5 18.5q25 0 43.5 -19t18.5 -44q0 -24 -19 -43t-43 -19
q-25 0 -44 18.5z" />
    <glyph glyph-name="agrave.ss01" horiz-adv-x="579" 
d="M466.5 447.5q60.5 -55.5 60.5 -152.5v-295h-147v54q-30 -33 -74.5 -50t-95.5 -17q-80 0 -128.5 39t-48.5 110q0 81 62.5 115.5t163.5 39.5l121 7v6q0 37 -21.5 56.5t-74.5 19.5q-88 0 -117 -59l-115 50q23 58 80.5 95t157.5 37q116 0 176.5 -55.5zM380 136v68l-99 -7
q-48 -3 -73.5 -15t-25.5 -42q0 -50 77 -50q72 0 121 46zM383 560h-118l-106 118h155z" />
    <glyph glyph-name="amacron.ss01" horiz-adv-x="579" 
d="M466.5 447.5q60.5 -55.5 60.5 -152.5v-295h-147v54q-30 -33 -74.5 -50t-95.5 -17q-80 0 -128.5 39t-48.5 110q0 81 62.5 115.5t163.5 39.5l121 7v6q0 37 -21.5 56.5t-74.5 19.5q-88 0 -117 -59l-115 50q23 58 80.5 95t157.5 37q116 0 176.5 -55.5zM380 136v68l-99 -7
q-48 -3 -73.5 -15t-25.5 -42q0 -50 77 -50q72 0 121 46zM167 649h248v-94h-248v94z" />
    <glyph glyph-name="aogonek.ss01" horiz-adv-x="579" 
d="M556 -190q-48 -30 -102 -30q-51 0 -78.5 24t-27.5 65q0 28 13 62t39 69h-20v54q-30 -33 -74.5 -50t-95.5 -17q-80 0 -128.5 39t-48.5 110q0 81 62.5 115.5t163.5 39.5l121 7v6q0 37 -21.5 56.5t-74.5 19.5q-88 0 -117 -59l-115 50q23 58 80.5 95t157.5 37
q116 0 176.5 -55.5t60.5 -152.5v-295q-48 -56 -48 -86q0 -9 6 -13.5t15 -4.5q11 0 25 7zM380 136v68l-99 -7q-48 -3 -73.5 -15t-25.5 -42q0 -50 77 -50q72 0 121 46z" />
    <glyph glyph-name="aring.ss01" horiz-adv-x="579" 
d="M466.5 447.5q60.5 -55.5 60.5 -152.5v-295h-147v54q-30 -33 -74.5 -50t-95.5 -17q-80 0 -128.5 39t-48.5 110q0 81 62.5 115.5t163.5 39.5l121 7v6q0 37 -21.5 56.5t-74.5 19.5q-88 0 -117 -59l-115 50q23 58 80.5 95t157.5 37q116 0 176.5 -55.5zM380 136v68l-99 -7
q-48 -3 -73.5 -15t-25.5 -42q0 -50 77 -50q72 0 121 46zM209 572.5q-35 33.5 -35 83.5q0 49 35 82.5t87 33.5t87 -33.5t35 -82.5q0 -50 -35 -83.5t-87 -33.5t-87 33.5zM324 628.5q11 10.5 11 27.5t-11 27.5t-28 10.5t-27.5 -10.5t-10.5 -27.5t10.5 -27.5t27.5 -10.5t28 10.5
z" />
    <glyph glyph-name="atilde.ss01" horiz-adv-x="579" 
d="M466.5 447.5q60.5 -55.5 60.5 -152.5v-295h-147v54q-30 -33 -74.5 -50t-95.5 -17q-80 0 -128.5 39t-48.5 110q0 81 62.5 115.5t163.5 39.5l121 7v6q0 37 -21.5 56.5t-74.5 19.5q-88 0 -117 -59l-115 50q23 58 80.5 95t157.5 37q116 0 176.5 -55.5zM380 136v68l-99 -7
q-48 -3 -73.5 -15t-25.5 -42q0 -50 77 -50q72 0 121 46zM284 565q-12 6 -24 11t-22 5q-23 0 -36 -37l-62 50q15 42 36 64.5t52 22.5q25 0 61 -20q3 -1 18.5 -8.5t28.5 -7.5q24 0 37 37l61 -48q-15 -43 -35.5 -66t-51.5 -23q-25 0 -63 20z" />
    <glyph glyph-name="ae.ss01" horiz-adv-x="928" 
d="M581 122.5q38 -22.5 94 -22.5q43 0 77 10.5t67 32.5l49 -95q-42 -30 -91 -45.5t-112 -15.5q-68 0 -122 19.5t-91 56.5q-55 -42 -106 -59t-111 -17q-98 0 -150 38.5t-52 110.5q0 149 216 149h126v19q0 37 -21.5 56.5t-73.5 19.5q-91 0 -115 -59l-118 55q27 55 85 91
t153 36q122 0 174 -65q71 65 179 65q77 0 134.5 -32t89 -92t31.5 -141q0 -22 -3 -48h-361q14 -45 52 -67.5zM748 285q-12 107 -108 107q-47 0 -77.5 -27.5t-38.5 -79.5h224zM202 106.5q20 -12.5 57 -12.5q40 0 74 12.5t65 39.5q-8 18 -13 44h-113q-90 0 -90 -48
q0 -23 20 -35.5z" />
    <glyph glyph-name="f_f_j" horiz-adv-x="938" 
d="M876 -12q0 -85 -42.5 -133.5t-136.5 -70.5l-70 120q53 12 77.5 39t24.5 73v345h-166v-361h-147v361h-166v-361h-147v361h-85v129h85v53q0 85 51.5 132.5t131.5 47.5q37 0 71 -8v-121q-17 4 -36 4q-33 0 -52 -18t-19 -52v-38h166v38q0 101 61 153t160 52q67 0 131 -24
v-127q-52 21 -102 21q-49 0 -76 -21.5t-27 -60.5v-31h313v-502z" />
    <glyph glyph-name="f_i" horiz-adv-x="625" 
d="M563 0h-147v361h-166v-361h-147v361h-85v129h85v28q0 101 61 153t160 52q66 0 131 -24v-127q-52 21 -102 21q-49 0 -76 -21.5t-27 -60.5v-21h313v-490z" />
    <glyph glyph-name="f_j" horiz-adv-x="625" 
d="M563 -12q0 -85 -42.5 -133.5t-136.5 -70.5l-70 120q53 12 77.5 39t24.5 73v345h-166v-361h-147v361h-85v129h85v28q0 101 61 153t160 52q66 0 131 -24v-127q-52 21 -102 21q-49 0 -76 -21.5t-27 -60.5v-21h313v-502z" />
    <glyph glyph-name="a.sc" horiz-adv-x="610" 
d="M600 7v-7h-151l-30 73h-227l-30 -73h-152v7l217 483h156zM373 185l-68 165l-67 -165h135z" />
    <glyph glyph-name="aacute.sc" horiz-adv-x="610" 
d="M600 7v-7h-151l-30 73h-227l-30 -73h-152v7l217 483h156zM373 185l-68 165l-67 -165h135zM431 668l-105 -118h-118l68 118h155z" />
    <glyph glyph-name="abreve.sc" horiz-adv-x="610" 
d="M600 7v-7h-151l-30 73h-227l-30 -73h-152v7l217 483h156zM373 185l-68 165l-67 -165h135zM444 614q-24 -40 -58.5 -58t-80.5 -18q-94 0 -139 76l56 61q15 -22 34.5 -32.5t48.5 -10.5t48.5 10.5t34.5 32.5z" />
    <glyph glyph-name="acircumflex.sc" horiz-adv-x="610" 
d="M600 7v-7h-151l-30 73h-227l-30 -73h-152v7l217 483h156zM373 185l-68 165l-67 -165h135zM356 545l-51 57l-51 -57h-97l80 123h136l80 -123h-97z" />
    <glyph glyph-name="adieresis.sc" horiz-adv-x="610" 
d="M600 7v-7h-151l-30 73h-227l-30 -73h-152v7l217 483h156zM373 185l-68 165l-67 -165h135zM178 551.5q-19 18.5 -19 43.5t19 44t44 19t43.5 -19t18.5 -44t-18.5 -43.5t-43.5 -18.5t-44 18.5zM345 551.5q-19 18.5 -19 43.5q0 26 18.5 44.5t44.5 18.5q25 0 43.5 -19
t18.5 -44q0 -24 -19 -43t-43 -19q-25 0 -44 18.5z" />
    <glyph glyph-name="agrave.sc" horiz-adv-x="610" 
d="M600 7v-7h-151l-30 73h-227l-30 -73h-152v7l217 483h156zM373 185l-68 165l-67 -165h135zM397 550h-118l-106 118h155z" />
    <glyph glyph-name="amacron.sc" horiz-adv-x="610" 
d="M600 7v-7h-151l-30 73h-227l-30 -73h-152v7l217 483h156zM373 185l-68 165l-67 -165h135zM181 639h248v-94h-248v94z" />
    <glyph glyph-name="aogonek.sc" horiz-adv-x="610" 
d="M625 -162q-40 -25 -87 -25q-43 0 -67.5 20.5t-24.5 55.5q0 23 11.5 52.5t33.5 58.5h-42l-30 73h-227l-30 -73h-152v7l217 483h156l217 -483v-7q-40 -50 -40 -71q0 -16 17 -16q10 0 22 6zM373 185l-68 165l-67 -165h135z" />
    <glyph glyph-name="aring.sc" horiz-adv-x="610" 
d="M600 7v-7h-151l-30 73h-227l-30 -73h-152v7l207 462q-34 32 -34 82q0 49 35 82.5t87 33.5t87 -33.5t35 -82.5q0 -50 -34 -82zM277.5 578.5q-10.5 -10.5 -10.5 -27.5t10.5 -27.5t27.5 -10.5t28 10.5t11 27.5t-11 27.5t-28 10.5t-27.5 -10.5zM373 185l-68 165l-67 -165h135
z" />
    <glyph glyph-name="atilde.sc" horiz-adv-x="610" 
d="M600 7v-7h-151l-30 73h-227l-30 -73h-152v7l217 483h156zM373 185l-68 165l-67 -165h135zM298 555q-12 6 -24 11t-22 5q-23 0 -36 -37l-62 50q15 42 36 64.5t52 22.5q25 0 61 -20q3 -1 18.5 -8.5t28.5 -7.5q24 0 37 37l61 -48q-15 -43 -35.5 -66t-51.5 -23q-25 0 -63 20z
" />
    <glyph glyph-name="ae.sc" horiz-adv-x="824" 
d="M791 129v-129h-403v72h-169l-45 -72h-167v7l309 483h470v-129h-254v-53h158v-123h-158v-56h259zM388 181v164l-102 -164h102z" />
    <glyph glyph-name="b.sc" horiz-adv-x="574" 
d="M519.5 208q24.5 -31 24.5 -76q0 -59 -40.5 -95.5t-100.5 -36.5h-340v490h316q63 0 102 -38t39 -94q0 -37 -17.5 -64.5t-46.5 -42.5q39 -12 63.5 -43zM205 389v-97h115q26 0 40.5 13t14.5 36q0 24 -14.5 36t-41.5 12h-114zM381 114q15 13 15 36t-15 36t-40 13h-136v-98
h136q25 0 40 13z" />
    <glyph glyph-name="c.sc" horiz-adv-x="563" 
d="M163 21.5q-61 34.5 -93 93t-32 130.5t32 130.5t93 93t143 34.5q80 0 140 -34t87 -94l-118 -67q-14 30 -41.5 47t-66.5 17q-57 0 -88.5 -35t-31.5 -92q0 -56 32 -91.5t88 -35.5q39 0 66.5 17t41.5 48l118 -68q-27 -60 -87 -94t-140 -34q-82 0 -143 34.5z" />
    <glyph glyph-name="cacute.sc" horiz-adv-x="563" 
d="M163 21.5q-61 34.5 -93 93t-32 130.5t32 130.5t93 93t143 34.5q80 0 140 -34t87 -94l-118 -67q-14 30 -41.5 47t-66.5 17q-57 0 -88.5 -35t-31.5 -92q0 -56 32 -91.5t88 -35.5q39 0 66.5 17t41.5 48l118 -68q-27 -60 -87 -94t-140 -34q-82 0 -143 34.5zM426 668
l-105 -118h-118l68 118h155z" />
    <glyph glyph-name="ccaron.sc" horiz-adv-x="563" 
d="M163 21.5q-61 34.5 -93 93t-32 130.5t32 130.5t93 93t143 34.5q80 0 140 -34t87 -94l-118 -67q-14 30 -41.5 47t-66.5 17q-57 0 -88.5 -35t-31.5 -92q0 -56 32 -91.5t88 -35.5q39 0 66.5 17t41.5 48l118 -68q-27 -60 -87 -94t-140 -34q-82 0 -143 34.5zM448 668l-80 -123
h-136l-80 123h97l51 -57l51 57h97z" />
    <glyph glyph-name="ccedilla.sc" horiz-adv-x="563" 
d="M373.5 135q27.5 17 41.5 48l118 -68q-23 -49 -67.5 -81.5t-104.5 -42.5l-13 -30q32 -3 54 -21t22 -49q0 -39 -35 -59t-88 -20q-31 0 -55 5t-52 17l27 71q35 -15 69 -15q33 0 33 18q0 24 -73 21l23 59q-73 7 -126 42.5t-81 91.5t-28 123q0 72 32 130.5t93 93t143 34.5
q80 0 140 -34t87 -94l-118 -67q-14 30 -41.5 47t-66.5 17q-57 0 -88.5 -35t-31.5 -92q0 -56 32 -91.5t88 -35.5q39 0 66.5 17z" />
    <glyph glyph-name="cdotaccent.sc" horiz-adv-x="563" 
d="M163 21.5q-61 34.5 -93 93t-32 130.5t32 130.5t93 93t143 34.5q80 0 140 -34t87 -94l-118 -67q-14 30 -41.5 47t-66.5 17q-57 0 -88.5 -35t-31.5 -92q0 -56 32 -91.5t88 -35.5q39 0 66.5 17t41.5 48l118 -68q-27 -60 -87 -94t-140 -34q-82 0 -143 34.5zM249.5 565
q-21.5 22 -21.5 50q0 29 21.5 51t50.5 22t51 -22t22 -51t-22 -50.5t-51 -21.5t-50.5 22z" />
    <glyph glyph-name="d.sc" horiz-adv-x="587" 
d="M430 458q56 -32 87.5 -88t31.5 -125t-31.5 -125t-87.5 -88t-128 -32h-239v490h239q72 0 128 -32zM368.5 161q31.5 32 31.5 84t-31.5 84t-82.5 32h-76v-232h76q51 0 82.5 32z" />
    <glyph glyph-name="eth.sc" horiz-adv-x="590" 
d="M429.5 458q57.5 -32 90 -88t32.5 -125t-32.5 -125t-90 -88t-129.5 -32h-234v201h-54v90h54v199h234q72 0 129.5 -32zM372.5 152q35.5 34 35.5 93t-35.5 93t-91.5 34h-71v-81h107v-90h-107v-83h71q56 0 91.5 34z" />
    <glyph glyph-name="dcaron.sc" horiz-adv-x="587" 
d="M430 458q56 -32 87.5 -88t31.5 -125t-31.5 -125t-87.5 -88t-128 -32h-239v490h239q72 0 128 -32zM368.5 161q31.5 32 31.5 84t-31.5 84t-82.5 32h-76v-232h76q51 0 82.5 32zM434 668l-80 -123h-136l-80 123h97l51 -57l51 57h97z" />
    <glyph glyph-name="dcroat.sc" horiz-adv-x="590" 
d="M429.5 458q57.5 -32 90 -88t32.5 -125t-32.5 -125t-90 -88t-129.5 -32h-234v201h-54v90h54v199h234q72 0 129.5 -32zM372.5 152q35.5 34 35.5 93t-35.5 93t-91.5 34h-71v-81h107v-90h-107v-83h71q56 0 91.5 34z" />
    <glyph glyph-name="e.sc" horiz-adv-x="511" 
d="M478 129v-129h-418v490h413v-129h-266v-53h170v-123h-170v-56h271z" />
    <glyph glyph-name="eacute.sc" horiz-adv-x="511" 
d="M478 129v-129h-418v490h413v-129h-266v-53h170v-123h-170v-56h271zM397 668l-105 -118h-118l68 118h155z" />
    <glyph glyph-name="ecaron.sc" horiz-adv-x="511" 
d="M478 129v-129h-418v490h413v-129h-266v-53h170v-123h-170v-56h271zM419 668l-80 -123h-136l-80 123h97l51 -57l51 57h97z" />
    <glyph glyph-name="ecircumflex.sc" horiz-adv-x="511" 
d="M478 129v-129h-418v490h413v-129h-266v-53h170v-123h-170v-56h271zM322 545l-51 57l-51 -57h-97l80 123h136l80 -123h-97z" />
    <glyph glyph-name="edieresis.sc" horiz-adv-x="511" 
d="M478 129v-129h-418v490h413v-129h-266v-53h170v-123h-170v-56h271zM144 551.5q-19 18.5 -19 43.5t19 44t44 19t43.5 -19t18.5 -44t-18.5 -43.5t-43.5 -18.5t-44 18.5zM311 551.5q-19 18.5 -19 43.5q0 26 18.5 44.5t44.5 18.5q25 0 43.5 -19t18.5 -44q0 -24 -19 -43
t-43 -19q-25 0 -44 18.5z" />
    <glyph glyph-name="edotaccent.sc" horiz-adv-x="511" 
d="M478 129v-129h-418v490h413v-129h-266v-53h170v-123h-170v-56h271zM220.5 565q-21.5 22 -21.5 50q0 29 21.5 51t50.5 22t51 -22t22 -51t-22 -50.5t-51 -21.5t-50.5 22z" />
    <glyph glyph-name="egrave.sc" horiz-adv-x="511" 
d="M478 129v-129h-418v490h413v-129h-266v-53h170v-123h-170v-56h271zM363 550h-118l-106 118h155z" />
    <glyph glyph-name="emacron.sc" horiz-adv-x="511" 
d="M478 129v-129h-418v490h413v-129h-266v-53h170v-123h-170v-56h271zM147 639h248v-94h-248v94z" />
    <glyph glyph-name="eogonek.sc" horiz-adv-x="511" 
d="M503 -162q-40 -25 -87 -25q-43 0 -67.5 20.5t-24.5 55.5q0 23 11.5 52.5t33.5 58.5h-309v490h413v-129h-266v-53h170v-123h-170v-56h271v-129q-40 -50 -40 -71q0 -16 17 -16q10 0 22 6z" />
    <glyph glyph-name="f.sc" horiz-adv-x="516" 
d="M210 359v-86h183v-129h-183v-144h-147v490h423v-131h-276z" />
    <glyph glyph-name="g.sc" horiz-adv-x="589" 
d="M544 290v-213q-83 -90 -226 -90q-88 0 -152 33.5t-97.5 91.5t-33.5 132t33.5 133t94.5 92.5t142 33.5q80 0 138.5 -32.5t91.5 -91.5l-119 -63q-14 26 -41 40.5t-63 14.5q-59 0 -94 -36t-35 -93q0 -58 36.5 -92.5t104.5 -34.5q51 0 90 23v38h-113v114h243z" />
    <glyph glyph-name="gbreve.sc" horiz-adv-x="589" 
d="M544 290v-213q-83 -90 -226 -90q-88 0 -152 33.5t-97.5 91.5t-33.5 132t33.5 133t94.5 92.5t142 33.5q80 0 138.5 -32.5t91.5 -91.5l-119 -63q-14 26 -41 40.5t-63 14.5q-59 0 -94 -36t-35 -93q0 -58 36.5 -92.5t104.5 -34.5q51 0 90 23v38h-113v114h243zM440 614
q-24 -40 -58.5 -58t-80.5 -18q-94 0 -139 76l56 61q15 -22 34.5 -32.5t48.5 -10.5t48.5 10.5t34.5 32.5z" />
    <glyph glyph-name="gcommaaccent.sc" horiz-adv-x="589" 
d="M544 290v-213q-83 -90 -226 -90q-88 0 -152 33.5t-97.5 91.5t-33.5 132t33.5 133t94.5 92.5t142 33.5q80 0 138.5 -32.5t91.5 -91.5l-119 -63q-14 26 -41 40.5t-63 14.5q-59 0 -94 -36t-35 -93q0 -58 36.5 -92.5t104.5 -34.5q51 0 90 23v38h-113v114h243zM390 -70
l-45 -185h-97l15 185h127z" />
    <glyph glyph-name="gdotaccent.sc" horiz-adv-x="589" 
d="M544 290v-213q-83 -90 -226 -90q-88 0 -152 33.5t-97.5 91.5t-33.5 132t33.5 133t94.5 92.5t142 33.5q80 0 138.5 -32.5t91.5 -91.5l-119 -63q-14 26 -41 40.5t-63 14.5q-59 0 -94 -36t-35 -93q0 -58 36.5 -92.5t104.5 -34.5q51 0 90 23v38h-113v114h243zM250.5 565
q-21.5 22 -21.5 50q0 29 21.5 51t50.5 22t51 -22t22 -51t-22 -50.5t-51 -21.5t-50.5 22z" />
    <glyph glyph-name="h.sc" horiz-adv-x="615" 
d="M553 490v-490h-147v185h-196v-185h-147v490h147v-176h196v176h147z" />
    <glyph glyph-name="hbar.sc" horiz-adv-x="625" 
d="M610 341h-52v-341h-147v147h-196v-147h-147v341h-53v75h53v74h147v-74h196v74h147v-74h52v-75zM411 341h-196v-70h196v70z" />
    <glyph glyph-name="i.sc" horiz-adv-x="272" 
d="M210 490v-490h-147v490h147z" />
    <glyph glyph-name="iacute.sc" horiz-adv-x="272" 
d="M210 490v-490h-147v490h147zM262 668l-105 -118h-118l68 118h155z" />
    <glyph glyph-name="icircumflex.sc" horiz-adv-x="272" 
d="M210 490v-490h-147v490h147zM187 545l-51 57l-51 -57h-97l80 123h136l80 -123h-97z" />
    <glyph glyph-name="idieresis.sc" horiz-adv-x="272" 
d="M210 490v-490h-147v490h147zM9 551.5q-19 18.5 -19 43.5t19 44t44 19t43.5 -19t18.5 -44t-18.5 -43.5t-43.5 -18.5t-44 18.5zM176 551.5q-19 18.5 -19 43.5q0 26 18.5 44.5t44.5 18.5q25 0 43.5 -19t18.5 -44q0 -24 -19 -43t-43 -19q-25 0 -44 18.5z" />
    <glyph glyph-name="i.sc.loclTRK" horiz-adv-x="272" 
d="M210 490v-490h-147v490h147zM85.5 565q-21.5 22 -21.5 50q0 29 21.5 51t50.5 22t51 -22t22 -51t-22 -50.5t-51 -21.5t-50.5 22z" />
    <glyph glyph-name="igrave.sc" horiz-adv-x="272" 
d="M210 490v-490h-147v490h147zM228 550h-118l-106 118h155z" />
    <glyph glyph-name="imacron.sc" horiz-adv-x="272" 
d="M210 490v-490h-147v490h147zM12 639h248v-94h-248v94z" />
    <glyph glyph-name="iogonek.sc" horiz-adv-x="272" 
d="M235 -162q-42 -25 -87 -25q-43 0 -67.5 20.5t-24.5 55.5q0 51 45 111h-38v490h147v-490q-22 -27 -31.5 -43t-9.5 -28q0 -8 5 -12t13 -4q9 0 21 6z" />
    <glyph glyph-name="j.sc" horiz-adv-x="535" 
d="M104 20q-55 33 -79 97l123 64q9 -32 32 -47.5t64 -15.5q91 0 91 79v293h147v-305q0 -94 -58 -146t-173 -52q-92 0 -147 33z" />
    <glyph glyph-name="k.sc" horiz-adv-x="590" 
d="M570 7v-7h-157l-119 180l-84 -94v-86h-147v490h147v-217l183 217h174v-6l-177 -197z" />
    <glyph glyph-name="kcommaaccent.sc" horiz-adv-x="590" 
d="M570 7v-7h-157l-119 180l-84 -94v-86h-147v490h147v-217l183 217h174v-6l-177 -197zM374 -70l-45 -185h-97l15 185h127z" />
    <glyph glyph-name="l.sc" horiz-adv-x="494" 
d="M467 129v-129h-404v490h147v-361h257z" />
    <glyph glyph-name="lacute.sc" horiz-adv-x="494" 
d="M467 129v-129h-404v490h147v-361h257zM276 668l-105 -118h-118l68 118h155z" />
    <glyph glyph-name="lcaron.sc" horiz-adv-x="494" 
d="M398 490l-45 -185h-97l15 185h127zM467 129v-129h-404v490h147v-361h257z" />
    <glyph glyph-name="lcommaaccent.sc" horiz-adv-x="494" 
d="M467 129v-129h-404v490h147v-361h257zM333 -70l-45 -185h-97l15 185h127z" />
    <glyph glyph-name="lslash.sc" horiz-adv-x="494" 
d="M467 129v-129h-404v149l-53 -26v122l53 26v219h147v-147l98 48v-122l-98 -48v-92h257z" />
    <glyph glyph-name="m.sc" horiz-adv-x="663" 
d="M603 490v-490h-145v256l-121 -160h-11l-121 159v-255h-145v490h122l149 -196l150 196h122z" />
    <glyph glyph-name="n.sc" horiz-adv-x="600" 
d="M540 490v-490h-123l-213 258v-258h-144v490h124l212 -258v258h144z" />
    <glyph glyph-name="nacute.sc" horiz-adv-x="600" 
d="M540 490v-490h-123l-213 258v-258h-144v490h124l212 -258v258h144zM426 668l-105 -118h-118l68 118h155z" />
    <glyph glyph-name="ncaron.sc" horiz-adv-x="600" 
d="M540 490v-490h-123l-213 258v-258h-144v490h124l212 -258v258h144zM448 668l-80 -123h-136l-80 123h97l51 -57l51 57h97z" />
    <glyph glyph-name="ncommaaccent.sc" horiz-adv-x="600" 
d="M540 490v-490h-123l-213 258v-258h-144v490h124l212 -258v258h144zM377 -70l-45 -185h-97l15 185h127z" />
    <glyph glyph-name="eng.sc" horiz-adv-x="598" 
d="M538 490v-503q0 -79 -40 -128.5t-119 -64.5l-49 129q31 3 47 21t16 49v36l-188 228v-257h-145v490h124l209 -254v254h145z" />
    <glyph glyph-name="ntilde.sc" horiz-adv-x="600" 
d="M540 490v-490h-123l-213 258v-258h-144v490h124l212 -258v258h144zM293 555q-12 6 -24 11t-22 5q-23 0 -36 -37l-62 50q15 42 36 64.5t52 22.5q25 0 61 -20q3 -1 18.5 -8.5t28.5 -7.5q24 0 37 37l61 -48q-15 -43 -35.5 -66t-51.5 -23q-25 0 -63 20z" />
    <glyph glyph-name="o.sc" horiz-adv-x="630" 
d="M168 21.5q-63 34.5 -96.5 93.5t-33.5 130q0 72 33.5 130.5t96 93t147.5 34.5t148 -34.5t96.5 -93t33.5 -130.5q0 -71 -33.5 -130t-97 -93.5t-147.5 -34.5t-147 34.5zM407 152q35 36 35 93q0 58 -34.5 93.5t-92.5 35.5q-57 0 -91.5 -35.5t-34.5 -93.5t34.5 -93.5
t91.5 -35.5t92 36z" />
    <glyph glyph-name="oacute.sc" horiz-adv-x="630" 
d="M168 21.5q-63 34.5 -96.5 93.5t-33.5 130q0 72 33.5 130.5t96 93t147.5 34.5t148 -34.5t96.5 -93t33.5 -130.5q0 -71 -33.5 -130t-97 -93.5t-147.5 -34.5t-147 34.5zM407 152q35 36 35 93q0 58 -34.5 93.5t-92.5 35.5q-57 0 -91.5 -35.5t-34.5 -93.5t34.5 -93.5
t91.5 -35.5t92 36zM441 668l-105 -118h-118l68 118h155z" />
    <glyph glyph-name="ocircumflex.sc" horiz-adv-x="630" 
d="M168 21.5q-63 34.5 -96.5 93.5t-33.5 130q0 72 33.5 130.5t96 93t147.5 34.5t148 -34.5t96.5 -93t33.5 -130.5q0 -71 -33.5 -130t-97 -93.5t-147.5 -34.5t-147 34.5zM407 152q35 36 35 93q0 58 -34.5 93.5t-92.5 35.5q-57 0 -91.5 -35.5t-34.5 -93.5t34.5 -93.5
t91.5 -35.5t92 36zM366 545l-51 57l-51 -57h-97l80 123h136l80 -123h-97z" />
    <glyph glyph-name="odieresis.sc" horiz-adv-x="630" 
d="M168 21.5q-63 34.5 -96.5 93.5t-33.5 130q0 72 33.5 130.5t96 93t147.5 34.5t148 -34.5t96.5 -93t33.5 -130.5q0 -71 -33.5 -130t-97 -93.5t-147.5 -34.5t-147 34.5zM407 152q35 36 35 93q0 58 -34.5 93.5t-92.5 35.5q-57 0 -91.5 -35.5t-34.5 -93.5t34.5 -93.5
t91.5 -35.5t92 36zM188 551.5q-19 18.5 -19 43.5t19 44t44 19t43.5 -19t18.5 -44t-18.5 -43.5t-43.5 -18.5t-44 18.5zM355 551.5q-19 18.5 -19 43.5q0 26 18.5 44.5t44.5 18.5q25 0 43.5 -19t18.5 -44q0 -24 -19 -43t-43 -19q-25 0 -44 18.5z" />
    <glyph glyph-name="ograve.sc" horiz-adv-x="630" 
d="M168 21.5q-63 34.5 -96.5 93.5t-33.5 130q0 72 33.5 130.5t96 93t147.5 34.5t148 -34.5t96.5 -93t33.5 -130.5q0 -71 -33.5 -130t-97 -93.5t-147.5 -34.5t-147 34.5zM407 152q35 36 35 93q0 58 -34.5 93.5t-92.5 35.5q-57 0 -91.5 -35.5t-34.5 -93.5t34.5 -93.5
t91.5 -35.5t92 36zM407 550h-118l-106 118h155z" />
    <glyph glyph-name="ohungarumlaut.sc" horiz-adv-x="630" 
d="M168 21.5q-63 34.5 -96.5 93.5t-33.5 130q0 72 33.5 130.5t96 93t147.5 34.5t148 -34.5t96.5 -93t33.5 -130.5q0 -71 -33.5 -130t-97 -93.5t-147.5 -34.5t-147 34.5zM407 152q35 36 35 93q0 58 -34.5 93.5t-92.5 35.5q-57 0 -91.5 -35.5t-34.5 -93.5t34.5 -93.5
t91.5 -35.5t92 36zM346 673l-80 -123h-103l57 123h126zM516 673l-91 -123h-102l63 123h130z" />
    <glyph glyph-name="omacron.sc" horiz-adv-x="630" 
d="M168 21.5q-63 34.5 -96.5 93.5t-33.5 130q0 72 33.5 130.5t96 93t147.5 34.5t148 -34.5t96.5 -93t33.5 -130.5q0 -71 -33.5 -130t-97 -93.5t-147.5 -34.5t-147 34.5zM407 152q35 36 35 93q0 58 -34.5 93.5t-92.5 35.5q-57 0 -91.5 -35.5t-34.5 -93.5t34.5 -93.5
t91.5 -35.5t92 36zM191 639h248v-94h-248v94z" />
    <glyph glyph-name="oslash.sc" horiz-adv-x="630" 
d="M569.5 356q23.5 -51 23.5 -111q0 -71 -33.5 -130t-97 -93.5t-147.5 -34.5q-67 0 -118 21l-35 -50l-61 42l31 45q-45 35 -69.5 87t-24.5 113q0 72 33.5 130.5t96 93t147.5 34.5q67 0 122 -22l36 51l62 -42l-33 -47q44 -36 67.5 -87zM214 162l144 206q-19 6 -43 6
q-57 0 -91.5 -35.5t-34.5 -93.5q0 -49 25 -83zM407 152q35 36 35 93q0 47 -23 79l-143 -203q20 -5 39 -5q57 0 92 36z" />
    <glyph glyph-name="otilde.sc" horiz-adv-x="630" 
d="M168 21.5q-63 34.5 -96.5 93.5t-33.5 130q0 72 33.5 130.5t96 93t147.5 34.5t148 -34.5t96.5 -93t33.5 -130.5q0 -71 -33.5 -130t-97 -93.5t-147.5 -34.5t-147 34.5zM407 152q35 36 35 93q0 58 -34.5 93.5t-92.5 35.5q-57 0 -91.5 -35.5t-34.5 -93.5t34.5 -93.5
t91.5 -35.5t92 36zM308 555q-12 6 -24 11t-22 5q-23 0 -36 -37l-62 50q15 42 36 64.5t52 22.5q25 0 61 -20q3 -1 18.5 -8.5t28.5 -7.5q24 0 37 37l61 -48q-15 -43 -35.5 -66t-51.5 -23q-25 0 -63 20z" />
    <glyph glyph-name="oe.sc" horiz-adv-x="832" 
d="M800 129v-129h-416q-43 -13 -83 -13q-79 0 -139 34.5t-92.5 93.5t-32.5 130t32.5 130t92.5 93.5t139 34.5q40 0 83 -13h411v-129h-264v-53h168v-123h-168v-56h269zM384 352q-29 20 -69 20q-55 0 -91 -35t-36 -92t36 -92t91 -35q38 0 69 21v213z" />
    <glyph glyph-name="p.sc" horiz-adv-x="570" 
d="M445.5 468q42.5 -22 67.5 -62t25 -92q0 -51 -25 -91t-67.5 -62t-94.5 -22h-141v-139h-147v490h288q52 0 94.5 -22zM370.5 269.5q18.5 15.5 18.5 43.5t-18.5 43.5t-49.5 15.5h-111v-118h111q31 0 49.5 15.5z" />
    <glyph glyph-name="thorn.sc" horiz-adv-x="570" 
d="M445.5 399q42.5 -22 67.5 -62t25 -92q0 -51 -25 -91t-67.5 -62t-94.5 -22h-141v-70h-147v490h147v-69h141q52 0 94.5 -22zM370.5 200.5q18.5 15.5 18.5 43.5t-18.5 43.5t-49.5 15.5h-111v-118h111q31 0 49.5 15.5z" />
    <glyph glyph-name="q.sc" horiz-adv-x="630" 
d="M569.5 134q-23.5 -51 -68.5 -87l91 -76l-112 -81l-119 100q-22 -3 -46 -3q-84 0 -147 34.5t-96.5 93.5t-33.5 130q0 72 33.5 130.5t96 93t147.5 34.5t148 -34.5t96.5 -93t33.5 -130.5q0 -60 -23.5 -111zM223.5 151.5q34.5 -35.5 91.5 -35.5t92 36t35 93q0 58 -34.5 93.5
t-92.5 35.5q-57 0 -91.5 -35.5t-34.5 -93.5t34.5 -93.5z" />
    <glyph glyph-name="r.sc" horiz-adv-x="592" 
d="M562 7v-7h-153l-98 149h-103v-149h-145v490h297q51 0 92 -22t64.5 -61t23.5 -90t-24 -89t-65 -59zM208 260h118q30 0 47.5 14.5t17.5 41.5q0 28 -17.5 42t-47.5 14h-118v-112z" />
    <glyph glyph-name="racute.sc" horiz-adv-x="592" 
d="M562 7v-7h-153l-98 149h-103v-149h-145v490h297q51 0 92 -22t64.5 -61t23.5 -90t-24 -89t-65 -59zM208 260h118q30 0 47.5 14.5t17.5 41.5q0 28 -17.5 42t-47.5 14h-118v-112zM400 668l-105 -118h-118l68 118h155z" />
    <glyph glyph-name="rcaron.sc" horiz-adv-x="592" 
d="M562 7v-7h-153l-98 149h-103v-149h-145v490h297q51 0 92 -22t64.5 -61t23.5 -90t-24 -89t-65 -59zM208 260h118q30 0 47.5 14.5t17.5 41.5q0 28 -17.5 42t-47.5 14h-118v-112zM422 668l-80 -123h-136l-80 123h97l51 -57l51 57h97z" />
    <glyph glyph-name="rcommaaccent.sc" horiz-adv-x="592" 
d="M562 7v-7h-153l-98 149h-103v-149h-145v490h297q51 0 92 -22t64.5 -61t23.5 -90t-24 -89t-65 -59zM208 260h118q30 0 47.5 14.5t17.5 41.5q0 28 -17.5 42t-47.5 14h-118v-112zM368 -70l-45 -185h-97l15 185h127z" />
    <glyph glyph-name="s.sc" horiz-adv-x="546" 
d="M32 53l54 114q77 -57 185 -57q93 0 93 36q0 15 -17 21t-59 10l-40 5q-101 13 -152 47t-51 106q0 78 60 123t167 45q88 0 143.5 -33t83.5 -88l-122 -53q-10 28 -37 41t-64 13q-39 0 -61 -11t-22 -27q0 -15 21.5 -21.5t79.5 -14.5q76 -10 122 -24.5t72.5 -45t26.5 -83.5
q0 -84 -65.5 -126.5t-181.5 -42.5q-140 0 -236 66z" />
    <glyph glyph-name="sacute.sc" horiz-adv-x="546" 
d="M32 53l54 114q77 -57 185 -57q93 0 93 36q0 15 -17 21t-59 10l-40 5q-101 13 -152 47t-51 106q0 78 60 123t167 45q88 0 143.5 -33t83.5 -88l-122 -53q-10 28 -37 41t-64 13q-39 0 -61 -11t-22 -27q0 -15 21.5 -21.5t79.5 -14.5q76 -10 122 -24.5t72.5 -45t26.5 -83.5
q0 -84 -65.5 -126.5t-181.5 -42.5q-140 0 -236 66zM400 668l-105 -118h-118l68 118h155z" />
    <glyph glyph-name="scaron.sc" horiz-adv-x="546" 
d="M32 53l54 114q77 -57 185 -57q93 0 93 36q0 15 -17 21t-59 10l-40 5q-101 13 -152 47t-51 106q0 78 60 123t167 45q88 0 143.5 -33t83.5 -88l-122 -53q-10 28 -37 41t-64 13q-39 0 -61 -11t-22 -27q0 -15 21.5 -21.5t79.5 -14.5q76 -10 122 -24.5t72.5 -45t26.5 -83.5
q0 -84 -65.5 -126.5t-181.5 -42.5q-140 0 -236 66zM422 668l-80 -123h-136l-80 123h97l51 -57l51 57h97z" />
    <glyph glyph-name="scedilla.sc" horiz-adv-x="546" 
d="M466 42.5q-49 -41.5 -138 -52.5l-12 -29q32 -3 54 -21t22 -49q0 -39 -35 -59t-88 -20q-31 0 -55 5t-52 17l27 71q35 -15 69 -15q33 0 33 18q0 24 -73 21l23 59q-120 5 -209 65l54 114q77 -57 185 -57q93 0 93 36q0 15 -17 21t-59 10l-40 5q-101 13 -152 47t-51 106
q0 78 60 123t167 45q88 0 143.5 -33t83.5 -88l-122 -53q-10 28 -37 41t-64 13q-39 0 -61 -11t-22 -27q0 -15 21.5 -21.5t79.5 -14.5q76 -10 122 -24.5t72.5 -45t26.5 -83.5q0 -72 -49 -113.5z" />
    <glyph glyph-name="scommaaccent.sc" horiz-adv-x="546" 
d="M32 53l54 114q77 -57 185 -57q93 0 93 36q0 15 -17 21t-59 10l-40 5q-101 13 -152 47t-51 106q0 78 60 123t167 45q88 0 143.5 -33t83.5 -88l-122 -53q-10 28 -37 41t-64 13q-39 0 -61 -11t-22 -27q0 -15 21.5 -21.5t79.5 -14.5q76 -10 122 -24.5t72.5 -45t26.5 -83.5
q0 -84 -65.5 -126.5t-181.5 -42.5q-140 0 -236 66zM347 -70l-45 -185h-97l15 185h127z" />
    <glyph glyph-name="t.sc" horiz-adv-x="496" 
d="M476 361h-154v-361h-147v361h-155v129h456v-129z" />
    <glyph glyph-name="tbar.sc" horiz-adv-x="496" 
d="M322 361v-102h79v-90h-79v-169h-147v169h-79v90h79v102h-155v129h456v-129h-154z" />
    <glyph glyph-name="tcaron.sc" horiz-adv-x="496" 
d="M476 361h-154v-361h-147v361h-155v129h456v-129zM397 668l-80 -123h-136l-80 123h97l51 -57l51 57h97z" />
    <glyph glyph-name="uni0163.sc" horiz-adv-x="496" 
d="M476 361h-154v-361h-147v361h-155v129h456v-129zM316 -70l-45 -185h-97l15 185h127z" />
    <glyph glyph-name="uni021B.sc" horiz-adv-x="496" 
d="M476 361h-154v-361h-147v361h-155v129h456v-129zM316 -70l-45 -185h-97l15 185h127z" />
    <glyph glyph-name="u.sc" horiz-adv-x="595" 
d="M117 40.5q-64 53.5 -64 151.5v298h147v-289q0 -41 25 -62t73 -21q47 0 72.5 21.5t25.5 61.5v289h147v-298q0 -97 -64.5 -151t-180.5 -54q-117 0 -181 53.5z" />
    <glyph glyph-name="uacute.sc" horiz-adv-x="595" 
d="M117 40.5q-64 53.5 -64 151.5v298h147v-289q0 -41 25 -62t73 -21q47 0 72.5 21.5t25.5 61.5v289h147v-298q0 -97 -64.5 -151t-180.5 -54q-117 0 -181 53.5zM424 668l-105 -118h-118l68 118h155z" />
    <glyph glyph-name="ucircumflex.sc" horiz-adv-x="595" 
d="M117 40.5q-64 53.5 -64 151.5v298h147v-289q0 -41 25 -62t73 -21q47 0 72.5 21.5t25.5 61.5v289h147v-298q0 -97 -64.5 -151t-180.5 -54q-117 0 -181 53.5zM349 545l-51 57l-51 -57h-97l80 123h136l80 -123h-97z" />
    <glyph glyph-name="udieresis.sc" horiz-adv-x="595" 
d="M117 40.5q-64 53.5 -64 151.5v298h147v-289q0 -41 25 -62t73 -21q47 0 72.5 21.5t25.5 61.5v289h147v-298q0 -97 -64.5 -151t-180.5 -54q-117 0 -181 53.5zM171 551.5q-19 18.5 -19 43.5t19 44t44 19t43.5 -19t18.5 -44t-18.5 -43.5t-43.5 -18.5t-44 18.5zM338 551.5
q-19 18.5 -19 43.5q0 26 18.5 44.5t44.5 18.5q25 0 43.5 -19t18.5 -44q0 -24 -19 -43t-43 -19q-25 0 -44 18.5z" />
    <glyph glyph-name="ugrave.sc" horiz-adv-x="595" 
d="M117 40.5q-64 53.5 -64 151.5v298h147v-289q0 -41 25 -62t73 -21q47 0 72.5 21.5t25.5 61.5v289h147v-298q0 -97 -64.5 -151t-180.5 -54q-117 0 -181 53.5zM390 550h-118l-106 118h155z" />
    <glyph glyph-name="uhungarumlaut.sc" horiz-adv-x="595" 
d="M117 40.5q-64 53.5 -64 151.5v298h147v-289q0 -41 25 -62t73 -21q47 0 72.5 21.5t25.5 61.5v289h147v-298q0 -97 -64.5 -151t-180.5 -54q-117 0 -181 53.5zM329 673l-80 -123h-103l57 123h126zM499 673l-91 -123h-102l63 123h130z" />
    <glyph glyph-name="umacron.sc" horiz-adv-x="595" 
d="M117 40.5q-64 53.5 -64 151.5v298h147v-289q0 -41 25 -62t73 -21q47 0 72.5 21.5t25.5 61.5v289h147v-298q0 -97 -64.5 -151t-180.5 -54q-117 0 -181 53.5zM174 639h248v-94h-248v94z" />
    <glyph glyph-name="uogonek.sc" horiz-adv-x="595" 
d="M543 490v-298q0 -96 -62 -149q-44 -46 -60.5 -74.5t-16.5 -42.5q0 -18 17 -18q10 0 22 6l26 -81q-40 -25 -87 -25q-43 0 -67.5 20.5t-24.5 55.5q0 22 11.5 49t36.5 56q-26 -2 -40 -2q-117 0 -181 53.5t-64 151.5v298h147v-289q0 -41 25 -62t73 -21q47 0 72.5 21.5
t25.5 61.5v289h147z" />
    <glyph glyph-name="uring.sc" horiz-adv-x="595" 
d="M117 40.5q-64 53.5 -64 151.5v298h147v-289q0 -41 25 -62t73 -21q47 0 72.5 21.5t25.5 61.5v289h147v-298q0 -97 -64.5 -151t-180.5 -54q-117 0 -181 53.5zM211 532.5q-35 33.5 -35 83.5q0 49 35 82.5t87 33.5t87 -33.5t35 -82.5q0 -50 -35 -83.5t-87 -33.5t-87 33.5z
M326 588.5q11 10.5 11 27.5t-11 27.5t-28 10.5t-27.5 -10.5t-10.5 -27.5t10.5 -27.5t27.5 -10.5t28 10.5z" />
    <glyph glyph-name="v.sc" horiz-adv-x="595" 
d="M10 484v6h157l131 -321l130 321h157v-6l-213 -484h-148z" />
    <glyph glyph-name="w.sc" horiz-adv-x="799" 
d="M15 484v6h151l82 -296l103 282h97l103 -282l82 296h151v-6l-161 -484h-121l-102 263l-103 -263h-121z" />
    <glyph glyph-name="wacute.sc" horiz-adv-x="799" 
d="M15 484v6h151l82 -296l103 282h97l103 -282l82 296h151v-6l-161 -484h-121l-102 263l-103 -263h-121zM526 668l-105 -118h-118l68 118h155z" />
    <glyph glyph-name="wcircumflex.sc" horiz-adv-x="799" 
d="M15 484v6h151l82 -296l103 282h97l103 -282l82 296h151v-6l-161 -484h-121l-102 263l-103 -263h-121zM451 545l-51 57l-51 -57h-97l80 123h136l80 -123h-97z" />
    <glyph glyph-name="wdieresis.sc" horiz-adv-x="799" 
d="M15 484v6h151l82 -296l103 282h97l103 -282l82 296h151v-6l-161 -484h-121l-102 263l-103 -263h-121zM273 551.5q-19 18.5 -19 43.5t19 44t44 19t43.5 -19t18.5 -44t-18.5 -43.5t-43.5 -18.5t-44 18.5zM440 551.5q-19 18.5 -19 43.5q0 26 18.5 44.5t44.5 18.5
q25 0 43.5 -19t18.5 -44q0 -24 -19 -43t-43 -19q-25 0 -44 18.5z" />
    <glyph glyph-name="wgrave.sc" horiz-adv-x="799" 
d="M15 484v6h151l82 -296l103 282h97l103 -282l82 296h151v-6l-161 -484h-121l-102 263l-103 -263h-121zM492 550h-118l-106 118h155z" />
    <glyph glyph-name="x.sc" horiz-adv-x="580" 
d="M20 7l172 245l-162 232v6h163l97 -149l97 149h163v-6l-162 -232l172 -245v-7h-163l-107 162l-107 -162h-163v7z" />
    <glyph glyph-name="y.sc" horiz-adv-x="553" 
d="M538 484l-188 -306v-178h-147v178l-188 306v6h155l107 -194l106 194h155v-6z" />
    <glyph glyph-name="yacute.sc" horiz-adv-x="553" 
d="M538 484l-188 -306v-178h-147v178l-188 306v6h155l107 -194l106 194h155v-6zM399 668l-105 -118h-118l68 118h155z" />
    <glyph glyph-name="ycircumflex.sc" horiz-adv-x="553" 
d="M538 484l-188 -306v-178h-147v178l-188 306v6h155l107 -194l106 194h155v-6zM324 545l-51 57l-51 -57h-97l80 123h136l80 -123h-97z" />
    <glyph glyph-name="ydieresis.sc" horiz-adv-x="553" 
d="M538 484l-188 -306v-178h-147v178l-188 306v6h155l107 -194l106 194h155v-6zM146 551.5q-19 18.5 -19 43.5t19 44t44 19t43.5 -19t18.5 -44t-18.5 -43.5t-43.5 -18.5t-44 18.5zM313 551.5q-19 18.5 -19 43.5q0 26 18.5 44.5t44.5 18.5q25 0 43.5 -19t18.5 -44
q0 -24 -19 -43t-43 -19q-25 0 -44 18.5z" />
    <glyph glyph-name="ygrave.sc" horiz-adv-x="553" 
d="M538 484l-188 -306v-178h-147v178l-188 306v6h155l107 -194l106 194h155v-6zM365 550h-118l-106 118h155z" />
    <glyph glyph-name="z.sc" horiz-adv-x="529" 
d="M487 129v-129h-444v98l230 263h-223v129h430v-99l-230 -262h237z" />
    <glyph glyph-name="zacute.sc" horiz-adv-x="529" 
d="M487 129v-129h-444v98l230 263h-223v129h430v-99l-230 -262h237zM387 668l-105 -118h-118l68 118h155z" />
    <glyph glyph-name="zcaron.sc" horiz-adv-x="529" 
d="M487 129v-129h-444v98l230 263h-223v129h430v-99l-230 -262h237zM409 668l-80 -123h-136l-80 123h97l51 -57l51 57h97z" />
    <glyph glyph-name="zdotaccent.sc" horiz-adv-x="529" 
d="M487 129v-129h-444v98l230 263h-223v129h430v-99l-230 -262h237zM210.5 565q-21.5 22 -21.5 50q0 29 21.5 51t50.5 22t51 -22t22 -51t-22 -50.5t-51 -21.5t-50.5 22z" />
    <glyph glyph-name="braceleft.case" horiz-adv-x="408" 
d="M150 54v126q0 53 -25.5 74.5t-79.5 21.5v148q54 0 79.5 21.5t25.5 74.5v126q0 195 208 192l40 -117q-51 -5 -74.5 -25.5t-23.5 -74.5v-127q0 -52 -19 -88t-70 -56q51 -20 70 -56t19 -88v-127q0 -54 23.5 -74.5t74.5 -25.5l-40 -117q-208 -3 -208 192z" />
    <glyph glyph-name="braceright.case" horiz-adv-x="408" 
d="M10 -21q51 5 74.5 25.5t23.5 74.5v127q0 52 19 88t70 56q-51 20 -70 56t-19 88v127q0 54 -23.5 74.5t-74.5 25.5l40 117q208 3 208 -192v-126q0 -53 25.5 -74.5t79.5 -21.5v-148q-54 0 -79.5 -21.5t-25.5 -74.5v-126q0 -195 -208 -192z" />
    <glyph glyph-name="bracketleft.case" horiz-adv-x="405" 
d="M250 690v-680h140v-140h-290v960h290v-140h-140z" />
    <glyph glyph-name="bracketright.case" horiz-adv-x="405" 
d="M305 -130h-290v140h140v680h-140v140h290v-960z" />
    <glyph glyph-name="parenleft.case" horiz-adv-x="405" 
d="M132 84q-52 125 -52 266t52 266t149 220l114 -69q-74 -83 -114.5 -189.5t-40.5 -227.5q0 -120 40.5 -227t114.5 -190l-114 -69q-97 95 -149 220z" />
    <glyph glyph-name="parenright.case" horiz-adv-x="405" 
d="M10 -67q74 83 114.5 190t40.5 227q0 121 -40.5 227.5t-114.5 189.5l114 69q97 -95 149 -220t52 -266t-52 -266t-149 -220z" />
    <glyph glyph-name="emdash.case" horiz-adv-x="820" 
d="M730 420v-140h-640v140h640z" />
    <glyph glyph-name="endash.case" horiz-adv-x="720" 
d="M630 420v-140h-540v140h540z" />
    <glyph glyph-name="hyphen.case" horiz-adv-x="600" 
d="M510 420v-140h-420v140h420z" />
    <glyph glyph-name="guillemotleft.case" horiz-adv-x="654" 
d="M50 346v8l210 209l89 -89l-124 -124l124 -124l-89 -89zM305 346v8l210 209l89 -89l-124 -124l124 -124l-89 -89z" />
    <glyph glyph-name="guillemotright.case" horiz-adv-x="654" 
d="M50 226l124 124l-124 124l89 89l210 -209v-8l-210 -209zM305 226l124 124l-124 124l89 89l210 -209v-8l-210 -209z" />
    <glyph glyph-name="guilsinglleft.case" horiz-adv-x="399" 
d="M50 346v8l210 209l89 -89l-124 -124l124 -124l-89 -89z" />
    <glyph glyph-name="guilsinglright.case" horiz-adv-x="399" 
d="M50 226l124 124l-124 124l89 89l210 -209v-8l-210 -209z" />
    <glyph glyph-name="bar.case" horiz-adv-x="275" 
d="M193 800v-900h-110v900h110z" />
    <glyph glyph-name="at.case" horiz-adv-x="840" 
d="M613 665q85 -48 132.5 -132.5t47.5 -189.5q0 -103 -45.5 -152t-119.5 -49q-86 0 -120 57q-59 -44 -132 -44q-60 0 -99 30t-39 82q0 63 53 90t147 32l50 3v3q0 54 -66 54q-63 0 -78 -49l-97 32q20 61 70 87.5t110 26.5q76 0 122 -40t46 -108v-127q0 -34 13.5 -50t43.5 -16
q34 0 56.5 31.5t22.5 99.5q0 96 -40 168.5t-110 111.5t-159 39q-90 0 -161 -39.5t-111 -109.5t-40 -158q0 -86 39.5 -155t113 -108.5t172.5 -39.5q39 0 81 6t76 21l16 -55q-73 -30 -176 -30q-115 0 -202 48t-134.5 130.5t-47.5 183.5t47.5 184.5t133 131.5t192.5 48t192 -48
zM488 271v6v41l-45 -3q-47 -4 -69.5 -12t-22.5 -31q0 -17 13 -25.5t35 -8.5q52 0 89 33z" />
    <glyph glyph-name="uni0308.case" 
d="M-361 579q-24 24 -24 56t24 56t56 24t56 -24t24 -56t-24 -56t-56 -24t-56 24zM-156 579q-24 24 -24 56t24 56t56 24t56 -24t24 -56q0 -31 -24 -55.5t-56 -24.5t-56 24z" />
    <glyph glyph-name="uni0307.case" 
d="M-175 580q-27 27 -27 63t27 63t63 27t63 -27t27 -63t-27 -63t-63 -27t-63 27z" />
    <glyph glyph-name="gravecomb.case" 
d="M-20 560h-135l-130 160h175z" />
    <glyph glyph-name="acutecomb.case" 
d="M-20 720l-130 -160h-135l90 160h175z" />
    <glyph glyph-name="uni030B.case" 
d="M-235 720l-105 -160h-130l80 160h155zM-20 720l-115 -160h-130l85 160h160z" />
    <glyph glyph-name="uni0302.case" 
d="M-142 560l-67 80l-68 -80h-123l110 165h160l110 -165h-122z" />
    <glyph glyph-name="uni030C.case" 
d="M-20 725l-110 -165h-160l-110 165h123l68 -80l67 80h122z" />
    <glyph glyph-name="uni0306.case" 
d="M-20 658q-58 -103 -187 -103t-188 103l75 80q21 -35 47.5 -50t65.5 -15t65.5 15t47.5 50z" />
    <glyph glyph-name="uni030A.case" 
d="M-242.5 585q-37.5 36 -37.5 88t37.5 88t92.5 36t92.5 -35.5t37.5 -88.5t-37.5 -88.5t-92.5 -35.5t-92.5 36zM-117.5 641q12.5 12 12.5 32t-12.5 32.5t-32.5 12.5t-32 -12.5t-12 -32.5t12 -32t32 -12t32.5 12z" />
    <glyph glyph-name="tildecomb.case" 
d="M-389 606q19 54 45 82t63 28q20 0 38.5 -7.5t43.5 -20.5q20 -11 31.5 -16t22.5 -5q17 0 28.5 12.5t20.5 39.5l76 -61q-19 -54 -45 -82t-63 -28q-20 0 -38.5 7.5t-43.5 20.5q-20 11 -31.5 16t-22.5 5q-16 0 -27.5 -12.5t-21.5 -39.5z" />
    <glyph glyph-name="uni0304.case" 
d="M-340 682h320v-117h-320v117z" />
    <glyph glyph-name="uni0326.case" 
d="M-20 -75l-55 -230h-113l18 230h150z" />
    <glyph glyph-name="uni0327.case" 
d="M-242 -227q-30 6 -66 22l34 88q22 -10 41.5 -14.5t45.5 -4.5q42 0 42 23q0 30 -92 26l35 87h106l-19 -47q40 -4 67.5 -26t27.5 -61q0 -48 -43.5 -73.5t-110.5 -25.5q-38 0 -68 6z" />
    <glyph glyph-name="uni0328.case" 
d="M-199.5 -197.5q-27.5 23.5 -27.5 66.5q0 61 66 145l114 -14q-48 -61 -48 -88q0 -17 20 -17q14 0 26 6l29 -93q-48 -29 -102 -29q-50 0 -77.5 23.5z" />
    <glyph glyph-name="uni0335.case" 
d="M-400 414h380v-128h-380v128z" />
    <glyph glyph-name="uni0336.case" 
d="M-20 418v-95h-780v95h780z" />
    <glyph glyph-name="uni0337.case" 
d="M-420 310l400 225v-140l-400 -225v140z" />
    <glyph glyph-name="uni0338.case" 
d="M-617 2l524 748l73 -51l-523 -749z" />
    </font>
</defs>
</svg>
